<?xml version="1.0" standalone="no"?>
<!DOCTYPE svg PUBLIC "-//W3C//DTD SVG 20010904//EN"
 "http://www.w3.org/TR/2001/REC-SVG-20010904/DTD/svg10.dtd">
<svg version="1.0" xmlns="http://www.w3.org/2000/svg"
 width="700.000000pt" height="700.000000pt" viewBox="0 0 700.000000 700.000000"
 preserveAspectRatio="xMidYMid meet">
<metadata>
Created by potrace 1.11, written by Peter Selinger 2001-2013
</metadata>
<g transform="translate(0.000000,700.000000) scale(0.100000,-0.100000)"
fill="#000000" stroke="none">
<path d="M3480 6993 c-334 -29 -613 -84 -895 -178 -77 -26 -155 -53 -172 -61
-18 -8 -48 -21 -67 -29 -19 -8 -37 -15 -40 -15 -13 0 -283 -135 -364 -182 -48
-28 -102 -59 -120 -70 -30 -17 -133 -85 -252 -169 -52 -36 -225 -175 -290
-233 -126 -113 -353 -351 -440 -462 -115 -147 -270 -373 -332 -484 -20 -36
-55 -98 -77 -139 -23 -41 -41 -75 -41 -77 0 -1 -23 -51 -51 -109 -91 -192
-200 -511 -244 -715 -2 -8 -8 -36 -14 -62 -10 -42 -41 -232 -55 -328 -14 -98
-20 -235 -20 -420 0 -224 7 -334 29 -475 3 -16 8 -50 11 -75 3 -25 10 -61 14
-80 5 -19 12 -51 15 -70 11 -65 37 -165 72 -281 l36 -117 31 36 c198 229 571
388 1106 473 41 6 84 13 95 15 11 2 40 6 65 9 25 3 63 8 85 11 85 11 190 23
275 29 41 3 86 7 100 10 14 2 63 7 110 10 47 3 108 8 135 10 53 5 176 14 285
20 36 2 99 7 140 10 41 3 109 7 150 10 41 3 95 8 120 10 64 6 153 13 385 30
87 7 182 15 215 20 14 2 59 6 100 10 41 4 86 8 100 10 14 2 50 7 80 10 30 4
64 8 75 10 11 1 45 6 75 10 30 4 63 8 72 7 23 -1 25 3 38 84 6 38 13 80 15 94
3 14 10 54 15 90 6 36 13 76 15 90 5 23 18 106 31 185 2 17 6 41 9 55 3 14 7
41 10 60 3 19 8 42 10 50 2 8 7 40 10 70 4 30 8 57 10 60 2 3 6 28 9 55 4 28
11 68 16 90 5 22 12 56 15 75 6 32 37 199 50 263 3 15 7 39 10 55 3 15 11 50
17 77 7 28 11 53 10 57 -1 4 5 25 13 47 8 23 12 41 10 41 -2 0 1 15 6 33 5 17
11 43 14 57 2 14 22 88 44 165 156 551 342 917 596 1170 73 73 165 152 165
142 0 -3 -12 -36 -26 -73 -25 -67 -41 -113 -49 -144 -2 -8 -16 -60 -30 -115
-15 -55 -29 -109 -30 -120 -2 -11 -11 -56 -19 -100 -9 -44 -18 -98 -21 -120
-4 -22 -10 -67 -15 -100 -5 -33 -12 -87 -15 -120 -4 -33 -8 -76 -10 -95 -2
-19 -7 -80 -10 -135 -4 -55 -8 -118 -10 -140 -13 -149 -18 -487 -17 -1054 1
-360 4 -657 7 -659 6 -6 241 65 292 88 24 11 48 20 53 20 19 0 231 90 358 152
220 107 501 291 647 423 135 122 277 272 341 361 10 14 24 31 29 38 22 24 123
175 164 244 l43 74 -22 94 c-22 99 -90 312 -133 424 -171 441 -481 881 -837
1190 -41 36 -77 67 -80 70 -23 24 -166 128 -274 198 -197 130 -425 242 -686
337 -184 67 -482 130 -762 161 -51 6 -477 11 -528 7z m2386 -1753 c155 -35
278 -156 320 -314 18 -69 11 -188 -16 -258 -28 -76 -97 -168 -155 -208 -219
-151 -502 -75 -622 167 -91 184 -29 415 147 544 92 67 215 94 326 69z"/>
<path d="M6822 4098 c-128 -394 -332 -757 -586 -1042 -311 -351 -703 -613
-1220 -819 -96 -38 -160 -69 -161 -77 -2 -8 -6 -58 -9 -110 -8 -107 -10 -127
-21 -225 -5 -38 -9 -74 -10 -80 -11 -104 -37 -252 -71 -405 -48 -221 -142
-464 -246 -633 -188 -306 -479 -522 -791 -587 -32 -6 -57 -14 -54 -16 2 -2 28
1 58 6 30 6 70 13 89 16 19 3 43 7 52 10 18 5 48 12 93 19 17 3 44 10 61 16
17 5 40 11 50 14 259 56 671 228 954 399 51 31 94 56 96 56 8 0 218 151 304
219 224 176 440 387 641 628 79 95 225 308 313 457 57 96 182 349 230 466 83
202 187 556 212 720 2 19 9 58 14 85 5 28 12 73 15 100 4 28 8 61 10 74 14 83
20 216 19 431 0 216 -4 370 -10 370 -1 0 -15 -42 -32 -92z"/>
<path d="M3779 1916 c-4 -4 -245 -42 -324 -51 -22 -3 -53 -8 -68 -11 -15 -3
-44 -7 -65 -9 -20 -2 -50 -6 -67 -8 -27 -5 -75 -11 -185 -22 -19 -2 -48 -6
-65 -9 -16 -3 -57 -8 -90 -11 -33 -3 -76 -8 -95 -10 -76 -10 -208 -25 -260
-30 -30 -3 -71 -7 -90 -10 -44 -6 -99 -12 -170 -20 -30 -4 -66 -8 -80 -10 -14
-2 -50 -7 -80 -10 -30 -3 -95 -12 -145 -20 -49 -7 -115 -17 -145 -20 -30 -4
-57 -8 -60 -10 -3 -2 -35 -7 -70 -10 -36 -4 -67 -8 -70 -10 -3 -2 -48 -10
-100 -19 -52 -9 -143 -28 -203 -42 -59 -14 -113 -27 -120 -28 -65 -13 -267
-77 -370 -118 -83 -32 -213 -92 -226 -104 -4 -4 77 -108 138 -178 95 -108 311
-316 410 -395 211 -168 513 -352 601 -366 19 -3 42 -8 50 -10 8 -2 33 -7 55
-10 23 -3 50 -7 62 -9 116 -23 402 -23 535 -2 598 98 984 509 1246 1326 53
163 70 230 62 235 -4 2 -9 3 -11 1z"/>
<path d="M3620 100 c-9 -6 -10 -10 -3 -10 6 0 15 5 18 10 8 12 4 12 -15 0z"/>
</g>
</svg>
