<svg xmlns="http://www.w3.org/2000/svg" xmlns:xlink="http://www.w3.org/1999/xlink" width="73" height="35" viewBox="0 0 73 35"><defs><path id="7bpja" d="M549.64 2159a4.45 4.45 0 0 1 .05-4.72 4.6 4.6 0 0 1 4.14-2.27c.84.03 1.66.28 2.45.76.64.38 1.15.84 1.55 1.38.4.54.65 1.13.76 1.77l-1.47.32a3.19 3.19 0 0 0-1.54-2.16 3.43 3.43 0 0 0-1.65-.51 2.97 2.97 0 0 0-1.57.38c-.49.28-.89.68-1.2 1.2a3.27 3.27 0 0 0-.5 1.64c0 .56.13 1.08.41 1.57.29.48.7.89 1.23 1.2.83.5 1.7.6 2.64.33l.4 1.45c-.61.2-1.25.26-1.92.17a5.24 5.24 0 0 1-1.96-.72 5.11 5.11 0 0 1-1.82-1.8"/><path id="7bpjb" d="M564.92 2166.61l-.69 1.26-5.88-3.23.54-.99 4.82-1.28c.54-.14.95-.3 1.21-.5.27-.18.47-.4.6-.65.21-.37.24-.73.1-1.06-.14-.34-.46-.64-.94-.9a2.54 2.54 0 0 0-2.33-.2l-.6-1.37a3.5 3.5 0 0 1 1.8-.28c.65.06 1.3.26 1.96.62a3.7 3.7 0 0 1 1.73 1.76c.3.7.25 1.4-.14 2.1-.23.43-.55.79-.94 1.07-.39.28-.98.52-1.76.73l-3.24.86z"/><path id="7bpjc" d="M566.83 2168.74a3.74 3.74 0 0 1-.47-2.06c.03-.77.27-1.6.71-2.46.45-.86.98-1.53 1.6-2.01a3.52 3.52 0 0 1 3.93-.41 3.55 3.55 0 0 1 1.95 3.44c-.03.78-.27 1.6-.71 2.46a5.88 5.88 0 0 1-1.6 2.01 3.7 3.7 0 0 1-1.94.81 3.56 3.56 0 0 1-2-.4 3.53 3.53 0 0 1-1.47-1.38m3.89.05a4.2 4.2 0 0 0 1.6-1.87c.5-.95.69-1.75.6-2.4a1.78 1.78 0 0 0-1-1.42 1.78 1.78 0 0 0-1.73.02c-.58.3-1.11.93-1.6 1.88a4.2 4.2 0 0 0-.6 2.4c.1.64.42 1.11 1 1.4.57.3 1.15.3 1.73 0"/><path id="7bpjd" d="M579.53 2165.4l-4 8.18-1.51-.74 3.37-6.9-1.73-.85.62-1.27z"/><path id="7bpje" d="M583.83 2167.44l-3.86 8.24-1.53-.71 3.26-6.96-1.74-.82.6-1.28z"/><path id="7bpjf" d="M594.18 2173.58l-4.15-1.79-3.03 7.05-1.53-.66 3.61-8.35 5.68 2.44z"/><path id="7bpjg" d="M593.19 2180.95a4.48 4.48 0 0 1-.7-4.68 4.48 4.48 0 0 1 3.74-2.9c.83-.09 1.69.04 2.55.38a5.2 5.2 0 0 1 2.1 1.5 4.5 4.5 0 0 1 .7 4.67 4.6 4.6 0 0 1-3.74 2.9c-.84.1-1.69-.03-2.55-.38a5.19 5.19 0 0 1-2.1-1.5m4.33.36a2.95 2.95 0 0 0 1.48-.64c.44-.35.78-.8 1-1.37.23-.56.3-1.12.23-1.68a2.97 2.97 0 0 0-.64-1.49 3.3 3.3 0 0 0-1.37-.99 3.29 3.29 0 0 0-1.67-.23c-.55.07-1.05.29-1.49.64-.44.35-.77.8-1 1.37-.22.56-.3 1.12-.22 1.68.07.56.29 1.05.64 1.49.34.43.8.76 1.36.99.57.22 1.12.3 1.68.23"/><path id="7bpjh" d="M610.32 2186.43l-1.15 3.17-1.47-.54.66-1.82-6.56-2.38-.66 1.82-1.48-.53 1.16-3.16.37.13c.54.17 1.07-.1 1.56-.78.5-.7 1.03-1.75 1.6-3.16l1.08-2.68 6.27 2.28-2.62 7.2zm-5.9-3.93c-.41.69-.82 1.14-1.24 1.35l4.34 1.57 2.13-5.87-3.35-1.21-.61 1.49c-.45 1.1-.87 1.98-1.28 2.67z"/><path id="7bpji" d="M617.7 2188.14l-4.32-1.41-1.5 1.72-1.66-.54 6.72-7.38 1.58.52 1.08 9.92-1.68-.55zm-.11-1.42l-.4-4.33-2.85 3.26z"/></defs><g><g clip-path="url(#clip-50AB9887-D55A-454B-8973-7A9D4C582631)" transform="translate(-548 -2154)"><use fill="#2996d0" xlink:href="#7bpja"/></g><g transform="translate(-548 -2154)"><use fill="#2996d0" xlink:href="#7bpjb"/></g><g transform="translate(-548 -2154)"><use fill="#" xlink:href="#7bpjc"/></g><g transform="translate(-548 -2154)"><use fill="#" xlink:href="#7bpjd"/></g><g transform="translate(-548 -2154)"><use fill="#" xlink:href="#7bpje"/></g><g transform="translate(-548 -2154)"><use fill="#" xlink:href="#7bpjf"/></g><g transform="translate(-548 -2154)"><use fill="" xlink:href="#7bpjg"/></g><g transform="translate(-548 -2154)"><use fill="#2996d0" xlink:href="#7bpjh"/></g><g clip-path="url(#clip-20A61A8B-5F14-452E-BA1D-E930EE6B2553)" transform="translate(-548 -2154)"><use fill="#2996d0" xlink:href="#7bpji"/></g></g></svg>