<svg xmlns="http://www.w3.org/2000/svg" width="36" height="24" viewBox="0 0 36 24">
    <g fill="" fill-rule="evenodd">
        <path d="M-762-1954H678v4630H-762z"/>
        <path fill-rule="nonzero" d="M35.805 18.221c-.139-.703-1.36-6.902-1.66-7.807-.726-2.176-2.468-4.653-4.66-6.626C27.205 1.737 24.843.56 23.005.56H5.118c-.927 0-1.681.753-1.681 1.68v2.639H2.2a.822.822 0 1 0 0 1.643h1.238v1.96H1.222a.822.822 0 1 0 0 1.643h2.216v8.255c0 .926.754 1.68 1.68 1.68H7.17a4.243 4.243 0 0 0 4.19 3.6 4.242 4.242 0 0 0 4.19-3.6h7.543a4.243 4.243 0 0 0 4.19 3.6 4.242 4.242 0 0 0 4.19-3.6h2.667c.927 0 1.681-.754 1.681-1.68a.827.827 0 0 0-.015-.159zm-3.315-7.553h-8.475V2.35c3.003.806 7.164 4.796 8.475 8.318zM11.36 22.017a2.594 2.594 0 0 1-2.593-2.59 2.594 2.594 0 0 1 2.592-2.59 2.594 2.594 0 0 1 2.593 2.59 2.594 2.594 0 0 1-2.593 2.59zm15.922 0a2.594 2.594 0 0 1-2.593-2.59 2.594 2.594 0 0 1 2.593-2.59 2.594 2.594 0 0 1 2.592 2.59 2.594 2.594 0 0 1-2.592 2.59zm6.816-3.601h-2.702a4.243 4.243 0 0 0-4.114-3.223 4.243 4.243 0 0 0-4.115 3.223h-7.694a4.243 4.243 0 0 0-4.114-3.223 4.243 4.243 0 0 0-4.114 3.223H5.119a.036.036 0 0 1-.036-.036v-8.255H15.16a.822.822 0 1 0 0-1.643H5.083v-1.96H9.72a.822.822 0 1 0 0-1.643H5.083v-2.64c0-.02.016-.036.036-.036H22.37v9.287c0 .453.368.821.822.821h9.722c.35 1.598.832 4.159 1.241 6.054.009.038-.015.05-.058.05z"/>
    </g>
</svg>
