<?xml version="1.0" encoding="UTF-8"?>
<svg width="500px" height="188px" viewBox="0 0 500 188" version="1.1" xmlns="http://www.w3.org/2000/svg" xmlns:xlink="http://www.w3.org/1999/xlink">
    <!-- Generator: Sketch 52 (66869) - http://www.bohemiancoding.com/sketch -->
    <title>Brand_zaglushka</title>
    <desc>Created with Sketch.</desc>
    <defs>
        <path d="M5.1277704,-2.07168062e-16 L494.87223,2.07168062e-16 C496.655267,-1.2037061e-16 497.30184,0.185651222 497.953691,0.534265408 C498.605543,0.882879593 499.11712,1.39445674 499.465735,2.04630859 C499.814349,2.69816044 500,3.34473292 500,5.1277704 L500,254.87223 C500,256.655267 499.814349,257.30184 499.465735,257.953691 C499.11712,258.605543 498.605543,259.11712 497.953691,259.465735 C497.30184,259.814349 496.655267,260 494.87223,260 L5.1277704,260 C3.34473292,260 2.69816044,259.814349 2.04630859,259.465735 C1.39445674,259.11712 0.882879593,258.605543 0.534265408,257.953691 C0.185651222,257.30184 8.02470732e-17,256.655267 -1.38112041e-16,254.87223 L1.38112041e-16,5.1277704 C-8.02470732e-17,3.34473292 0.185651222,2.69816044 0.534265408,2.04630859 C0.882879593,1.39445674 1.39445674,0.882879593 2.04630859,0.534265408 C2.69816044,0.185651222 3.34473292,1.2037061e-16 5.1277704,-2.07168062e-16 Z" id="path-1"></path>
        <polygon id="path-3" points="0 0.54897218 327.300331 0.54897218 327.300331 154.613002 0 154.613002"></polygon>
        <polygon id="path-5" points="0.845820388 0.206156391 304.937529 0.206156391 304.937529 159.721805 0.845820388 159.721805"></polygon>
        <polygon id="path-7" points="0 0.54897218 327.300331 0.54897218 327.300331 154.613002 0 154.613002"></polygon>
        <polygon id="path-9" points="0.845820388 0.206156391 304.937529 0.206156391 304.937529 159.721805 0.845820388 159.721805"></polygon>
    </defs>
    <g id="Page-1" stroke="none" stroke-width="1" fill="none" fill-rule="evenodd">
        <g id="Pharmadis_brand_N" transform="translate(-840.000000, -407.000000)">
            <g id="Brand_zaglushka" transform="translate(840.000000, 371.000000)">
                <mask id="mask-2" fill="white">
                    <use xlink:href="#path-1"></use>
                </mask>
                <g id="Mask"></g>
                <g id="Group-4" mask="url(#mask-2)">
                    <g transform="translate(-124.000000, 10.000000)">
                        <g id="Group-11" stroke-width="1" fill="none" fill-rule="evenodd" transform="translate(579.000000, 131.000000) scale(-1, -1) translate(-579.000000, -131.000000) translate(410.000000, 22.000000)">
                            <g id="Group-3" transform="translate(0.000000, 45.796203)">
                                <mask id="mask-4" fill="white">
                                    <use xlink:href="#path-3"></use>
                                </mask>
                                <g id="Clip-2"></g>
                                <path d="M-0.00016407767,0.54897218 C14.8258942,5.84119774 28.3442534,14.3048068 40.9716709,23.6625286 C53.6105738,33.0680023 65.6062922,43.280318 77.5970883,53.4580549 C89.5977291,63.625912 101.468749,73.932085 113.769651,83.6915812 C126.027894,93.5136489 138.802982,102.599679 151.911147,111.269115 C158.431593,115.647468 164.983215,119.981363 171.592263,124.213168 C174.898428,126.32907 178.21936,128.41698 181.571467,130.432438 L186.672642,133.32225 C188.372486,134.287168 190.065768,135.263611 191.831244,136.098446 L197.075166,138.71492 C198.827516,139.579393 200.647137,140.289085 202.430661,141.086047 C205.97802,142.727724 209.682894,143.972566 213.340185,145.332671 C220.746651,147.771311 228.282739,149.900386 235.992749,151.143581 C243.668302,152.615656 251.489884,153.05201 259.293418,153.219965 L265.152632,153.03719 L268.081418,152.948273 L270.998719,152.666702 L276.836603,152.085446 C278.779283,151.879619 280.694069,151.464671 282.630185,151.17816 C298.078098,148.653897 313.115817,143.664649 327.300331,136.910228 C313.273331,143.987386 298.31437,149.342183 282.813952,152.240228 C280.874554,152.576138 278.945001,153.002611 276.987554,153.241371 L271.110292,153.903311 L268.17002,154.222754 L265.216622,154.352837 L259.303263,154.613002 C251.419331,154.547138 243.499302,154.202995 235.713817,152.81819 C220.065729,150.452002 205.009962,145.004995 190.922253,137.886671 C189.132166,137.048544 187.415914,136.070453 185.693098,135.102243 L180.524651,132.202551 C177.133166,130.183799 173.790904,128.100829 170.468331,125.99316 C163.821545,121.774529 157.237108,117.468626 150.69205,113.101799 C137.611778,104.371438 124.775982,95.161912 112.525943,85.2591602 C100.248011,75.3909872 88.3261272,65.1062203 76.5010495,54.7391226 C64.6464379,44.4082504 52.7918262,34.0773782 40.3301272,24.5220624 C27.9537485,14.909115 14.7044767,6.18040075 -0.00016407767,0.54897218" id="Fill-1" fill="#F1FBFF" mask="url(#mask-4)"></path>
                            </g>
                            <path d="M337.387662,169.545519 C329.744924,171.434188 321.990614,172.954015 314.123089,173.639008 C306.26541,174.258135 298.342099,174.411271 290.463089,173.696639 C282.600487,172.935902 274.777264,171.625195 267.124682,169.599857 C259.490148,167.528414 251.983594,164.967925 244.70839,161.839353 C237.46272,158.65315 230.382769,155.071759 223.596517,150.986504 C221.886827,149.988654 220.242769,148.887068 218.559332,147.843113 C216.880817,146.795865 215.213788,145.723917 213.584497,144.607511 C210.309507,142.399398 207.067332,140.148474 203.836643,137.882729 C190.946701,128.796699 178.10106,119.597053 165.841177,109.60209 C141.395245,89.5430075 118.92973,67.3005113 95.7324291,45.9817669 C84.1009631,35.3709699 72.2611184,24.9198947 59.2858563,16.0314586 C52.8129922,11.5888872 46.0168951,7.56784962 38.7597398,4.5594812 C31.5436039,1.49018797 23.6924874,-0.207473684 15.8134777,0.0856240602 C23.6793612,-0.388601504 31.6240019,1.1345188 38.9582738,4.05726316 C46.3319243,6.91908271 53.2691282,10.8133308 59.883099,15.1340526 C73.065099,23.8940526 85.0723029,34.2430376 96.864565,44.7204586 C108.658468,55.2192857 120.052021,66.1347068 131.673643,76.7850226 C143.269012,87.4600376 155.03174,97.9473383 167.227633,107.894549 C179.374303,117.884571 192.146109,127.110564 204.985186,136.242699 C208.199468,138.516677 211.423594,140.775835 214.672332,142.988887 C216.290138,144.10694 217.935837,145.172301 219.596303,146.217902 C221.25841,147.260211 222.884419,148.358504 224.572779,149.35306 C231.291759,153.405383 238.250293,157.03288 245.38275,160.291534 C252.54474,163.479383 259.944643,166.110677 267.484012,168.259511 C275.038148,170.368827 282.77605,171.747045 290.566458,172.629632 C298.366711,173.515511 306.240798,173.543504 314.08207,173.103857 C321.931546,172.599992 329.700623,171.26294 337.387662,169.545519" id="Fill-4" fill="#F0F9FD"></path>
                            <g id="Group-8" transform="translate(14.766990, 57.969135)">
                                <mask id="mask-6" fill="white">
                                    <use xlink:href="#path-5"></use>
                                </mask>
                                <g id="Clip-7"></g>
                                <path d="M304.937529,0.206156391 C282.626248,13.0283594 263.481665,30.4116902 244.717743,47.8427729 C226.014529,65.4105248 207.908558,83.6764421 188.631073,100.685991 L174.359597,113.644863 L167.222218,120.121006 L159.835442,126.351803 C149.833267,134.466329 139.240413,141.938675 127.80584,147.978465 C122.135316,151.082337 116.118587,153.522623 110.016539,155.67969 L105.340325,157.011803 L103.002218,157.675389 L100.613248,158.134795 L95.833665,159.051961 L90.9835291,159.50972 C90.1729854,159.578878 89.3657233,159.676029 88.5568204,159.722134 L86.1186262,159.699081 C84.4926165,159.666149 82.864966,159.705668 81.2455194,159.611811 C78.0279563,159.144171 74.7578883,159.009149 71.6272864,158.085397 C65.223335,156.827382 59.2820825,154.036367 53.5262379,151.102096 L53.4999854,151.088923 L53.4622476,151.060931 C47.9115,147.141983 42.5789757,142.905239 37.5713252,138.302946 C32.5817233,133.689126 27.8333155,128.816788 23.4343932,123.643119 C14.6053738,113.32542 6.96591748,101.993405 0.845820388,89.8940662 C7.23008252,101.853442 15.1008883,112.981277 24.1087524,123.050337 C28.615966,128.08075 33.4021117,132.855938 38.4015583,137.382487 C43.4206942,141.881044 48.7597816,146.015698 54.3121699,149.832555 L54.2481796,149.793036 C59.9269078,152.593931 65.7549466,155.249923 72.0013835,156.391029 C75.0565097,157.257149 78.2428981,157.33948 81.3685777,157.761014 C82.9437233,157.836758 84.5270728,157.793946 86.1055,157.820292 L88.4747816,157.835111 C89.2639951,157.785713 90.0499272,157.686916 90.8375,157.616111 L95.5580146,157.151765 L100.21782,156.237893 L102.547723,155.778487 L104.833325,155.118194 L109.401248,153.799254 C115.375316,151.658653 121.272267,149.243066 126.850908,146.157307 C138.098432,140.168562 148.538694,132.706096 158.45883,124.647555 L165.817714,118.490856 L172.969859,112.052585 L187.27251,99.174397 L201.568597,86.2863293 L215.605442,73.1101038 C224.93818,64.2957654 234.272558,55.4682541 243.746403,46.7856451 C262.674403,29.4862917 282.35716,12.5442541 304.937529,0.206156391" id="Fill-6" fill="#F1FBFF" mask="url(#mask-6)"></path>
                            </g>
                            <path d="M314.543456,49.3586481 C301.01033,50.9986782 288.035068,55.495588 275.704631,61.1154902 C263.326612,66.7008135 251.506456,73.4601744 239.93734,80.5916707 C216.799107,94.8727759 194.489466,110.528806 171.354515,124.963047 C159.770631,132.135708 148.167058,139.254032 136.356748,146.085844 C124.526748,152.888017 112.101146,158.855355 98.9470388,162.734783 C92.3642427,164.587227 85.6354175,166.098821 78.7818932,166.522002 C75.3707184,166.940242 71.9283689,166.711362 68.5057087,166.721242 C65.0978155,166.326054 61.6571068,166.172919 58.3263301,165.303505 C54.9332039,164.733776 51.7222039,163.487287 48.4685437,162.438392 C46.8884757,161.784686 45.3494272,161.028889 43.7874078,160.33237 C43.0162427,159.966821 42.2221068,159.644084 41.4689903,159.24231 L39.267068,157.931603 C33.2322913,154.672949 28.083534,150.090415 23.1070583,145.470009 C28.208233,149.961979 33.4554369,154.384791 39.5279515,157.459024 L41.7446408,158.700573 C42.5010388,159.079295 43.2984563,159.377332 44.0712621,159.718182 C45.6332816,160.370242 47.1739709,161.074994 48.7507573,161.679302 C51.9945728,162.627753 55.1826019,163.775445 58.5379903,164.244731 C61.8277476,165.03346 65.2143107,165.143783 68.5647767,165.48134 C71.934932,165.415475 75.3132913,165.59825 78.6637573,165.13555 C85.3942233,164.620159 92.0016311,163.031174 98.4646505,161.10628 C111.351311,157.030904 123.657136,151.195295 135.360796,144.34537 C147.087427,137.485565 158.658184,130.301377 170.196126,123.09249 C193.368816,108.85255 215.663689,93.163588 239.067728,79.1459414 C250.776311,72.1708737 262.737573,65.5399489 275.271466,60.1341068 C287.808641,54.8105955 300.972592,50.6397158 314.543456,49.3586481" id="Fill-9" fill="#F1FBFF"></path>
                        </g>
                        <g id="Group-11-Copy" stroke-width="1" fill="none" fill-rule="evenodd">
                            <g id="Group-3" transform="translate(0.000000, 45.796203)">
                                <mask id="mask-8" fill="white">
                                    <use xlink:href="#path-7"></use>
                                </mask>
                                <g id="Clip-2"></g>
                                <path d="M-0.00016407767,0.54897218 C14.8258942,5.84119774 28.3442534,14.3048068 40.9716709,23.6625286 C53.6105738,33.0680023 65.6062922,43.280318 77.5970883,53.4580549 C89.5977291,63.625912 101.468749,73.932085 113.769651,83.6915812 C126.027894,93.5136489 138.802982,102.599679 151.911147,111.269115 C158.431593,115.647468 164.983215,119.981363 171.592263,124.213168 C174.898428,126.32907 178.21936,128.41698 181.571467,130.432438 L186.672642,133.32225 C188.372486,134.287168 190.065768,135.263611 191.831244,136.098446 L197.075166,138.71492 C198.827516,139.579393 200.647137,140.289085 202.430661,141.086047 C205.97802,142.727724 209.682894,143.972566 213.340185,145.332671 C220.746651,147.771311 228.282739,149.900386 235.992749,151.143581 C243.668302,152.615656 251.489884,153.05201 259.293418,153.219965 L265.152632,153.03719 L268.081418,152.948273 L270.998719,152.666702 L276.836603,152.085446 C278.779283,151.879619 280.694069,151.464671 282.630185,151.17816 C298.078098,148.653897 313.115817,143.664649 327.300331,136.910228 C313.273331,143.987386 298.31437,149.342183 282.813952,152.240228 C280.874554,152.576138 278.945001,153.002611 276.987554,153.241371 L271.110292,153.903311 L268.17002,154.222754 L265.216622,154.352837 L259.303263,154.613002 C251.419331,154.547138 243.499302,154.202995 235.713817,152.81819 C220.065729,150.452002 205.009962,145.004995 190.922253,137.886671 C189.132166,137.048544 187.415914,136.070453 185.693098,135.102243 L180.524651,132.202551 C177.133166,130.183799 173.790904,128.100829 170.468331,125.99316 C163.821545,121.774529 157.237108,117.468626 150.69205,113.101799 C137.611778,104.371438 124.775982,95.161912 112.525943,85.2591602 C100.248011,75.3909872 88.3261272,65.1062203 76.5010495,54.7391226 C64.6464379,44.4082504 52.7918262,34.0773782 40.3301272,24.5220624 C27.9537485,14.909115 14.7044767,6.18040075 -0.00016407767,0.54897218" id="Fill-1" fill="#F1FBFF" mask="url(#mask-8)"></path>
                            </g>
                            <path d="M337.387662,169.545519 C329.744924,171.434188 321.990614,172.954015 314.123089,173.639008 C306.26541,174.258135 298.342099,174.411271 290.463089,173.696639 C282.600487,172.935902 274.777264,171.625195 267.124682,169.599857 C259.490148,167.528414 251.983594,164.967925 244.70839,161.839353 C237.46272,158.65315 230.382769,155.071759 223.596517,150.986504 C221.886827,149.988654 220.242769,148.887068 218.559332,147.843113 C216.880817,146.795865 215.213788,145.723917 213.584497,144.607511 C210.309507,142.399398 207.067332,140.148474 203.836643,137.882729 C190.946701,128.796699 178.10106,119.597053 165.841177,109.60209 C141.395245,89.5430075 118.92973,67.3005113 95.7324291,45.9817669 C84.1009631,35.3709699 72.2611184,24.9198947 59.2858563,16.0314586 C52.8129922,11.5888872 46.0168951,7.56784962 38.7597398,4.5594812 C31.5436039,1.49018797 23.6924874,-0.207473684 15.8134777,0.0856240602 C23.6793612,-0.388601504 31.6240019,1.1345188 38.9582738,4.05726316 C46.3319243,6.91908271 53.2691282,10.8133308 59.883099,15.1340526 C73.065099,23.8940526 85.0723029,34.2430376 96.864565,44.7204586 C108.658468,55.2192857 120.052021,66.1347068 131.673643,76.7850226 C143.269012,87.4600376 155.03174,97.9473383 167.227633,107.894549 C179.374303,117.884571 192.146109,127.110564 204.985186,136.242699 C208.199468,138.516677 211.423594,140.775835 214.672332,142.988887 C216.290138,144.10694 217.935837,145.172301 219.596303,146.217902 C221.25841,147.260211 222.884419,148.358504 224.572779,149.35306 C231.291759,153.405383 238.250293,157.03288 245.38275,160.291534 C252.54474,163.479383 259.944643,166.110677 267.484012,168.259511 C275.038148,170.368827 282.77605,171.747045 290.566458,172.629632 C298.366711,173.515511 306.240798,173.543504 314.08207,173.103857 C321.931546,172.599992 329.700623,171.26294 337.387662,169.545519" id="Fill-4" fill="#F0F9FD"></path>
                            <g id="Group-8" transform="translate(14.766990, 57.969135)">
                                <mask id="mask-10" fill="white">
                                    <use xlink:href="#path-9"></use>
                                </mask>
                                <g id="Clip-7"></g>
                                <path d="M304.937529,0.206156391 C282.626248,13.0283594 263.481665,30.4116902 244.717743,47.8427729 C226.014529,65.4105248 207.908558,83.6764421 188.631073,100.685991 L174.359597,113.644863 L167.222218,120.121006 L159.835442,126.351803 C149.833267,134.466329 139.240413,141.938675 127.80584,147.978465 C122.135316,151.082337 116.118587,153.522623 110.016539,155.67969 L105.340325,157.011803 L103.002218,157.675389 L100.613248,158.134795 L95.833665,159.051961 L90.9835291,159.50972 C90.1729854,159.578878 89.3657233,159.676029 88.5568204,159.722134 L86.1186262,159.699081 C84.4926165,159.666149 82.864966,159.705668 81.2455194,159.611811 C78.0279563,159.144171 74.7578883,159.009149 71.6272864,158.085397 C65.223335,156.827382 59.2820825,154.036367 53.5262379,151.102096 L53.4999854,151.088923 L53.4622476,151.060931 C47.9115,147.141983 42.5789757,142.905239 37.5713252,138.302946 C32.5817233,133.689126 27.8333155,128.816788 23.4343932,123.643119 C14.6053738,113.32542 6.96591748,101.993405 0.845820388,89.8940662 C7.23008252,101.853442 15.1008883,112.981277 24.1087524,123.050337 C28.615966,128.08075 33.4021117,132.855938 38.4015583,137.382487 C43.4206942,141.881044 48.7597816,146.015698 54.3121699,149.832555 L54.2481796,149.793036 C59.9269078,152.593931 65.7549466,155.249923 72.0013835,156.391029 C75.0565097,157.257149 78.2428981,157.33948 81.3685777,157.761014 C82.9437233,157.836758 84.5270728,157.793946 86.1055,157.820292 L88.4747816,157.835111 C89.2639951,157.785713 90.0499272,157.686916 90.8375,157.616111 L95.5580146,157.151765 L100.21782,156.237893 L102.547723,155.778487 L104.833325,155.118194 L109.401248,153.799254 C115.375316,151.658653 121.272267,149.243066 126.850908,146.157307 C138.098432,140.168562 148.538694,132.706096 158.45883,124.647555 L165.817714,118.490856 L172.969859,112.052585 L187.27251,99.174397 L201.568597,86.2863293 L215.605442,73.1101038 C224.93818,64.2957654 234.272558,55.4682541 243.746403,46.7856451 C262.674403,29.4862917 282.35716,12.5442541 304.937529,0.206156391" id="Fill-6" fill="#F1FBFF" mask="url(#mask-10)"></path>
                            </g>
                            <path d="M314.543456,49.3586481 C301.01033,50.9986782 288.035068,55.495588 275.704631,61.1154902 C263.326612,66.7008135 251.506456,73.4601744 239.93734,80.5916707 C216.799107,94.8727759 194.489466,110.528806 171.354515,124.963047 C159.770631,132.135708 148.167058,139.254032 136.356748,146.085844 C124.526748,152.888017 112.101146,158.855355 98.9470388,162.734783 C92.3642427,164.587227 85.6354175,166.098821 78.7818932,166.522002 C75.3707184,166.940242 71.9283689,166.711362 68.5057087,166.721242 C65.0978155,166.326054 61.6571068,166.172919 58.3263301,165.303505 C54.9332039,164.733776 51.7222039,163.487287 48.4685437,162.438392 C46.8884757,161.784686 45.3494272,161.028889 43.7874078,160.33237 C43.0162427,159.966821 42.2221068,159.644084 41.4689903,159.24231 L39.267068,157.931603 C33.2322913,154.672949 28.083534,150.090415 23.1070583,145.470009 C28.208233,149.961979 33.4554369,154.384791 39.5279515,157.459024 L41.7446408,158.700573 C42.5010388,159.079295 43.2984563,159.377332 44.0712621,159.718182 C45.6332816,160.370242 47.1739709,161.074994 48.7507573,161.679302 C51.9945728,162.627753 55.1826019,163.775445 58.5379903,164.244731 C61.8277476,165.03346 65.2143107,165.143783 68.5647767,165.48134 C71.934932,165.415475 75.3132913,165.59825 78.6637573,165.13555 C85.3942233,164.620159 92.0016311,163.031174 98.4646505,161.10628 C111.351311,157.030904 123.657136,151.195295 135.360796,144.34537 C147.087427,137.485565 158.658184,130.301377 170.196126,123.09249 C193.368816,108.85255 215.663689,93.163588 239.067728,79.1459414 C250.776311,72.1708737 262.737573,65.5399489 275.271466,60.1341068 C287.808641,54.8105955 300.972592,50.6397158 314.543456,49.3586481" id="Fill-9" fill="#F1FBFF"></path>
                        </g>
                        <path d="M418.74617,104.65393 C420.409871,121.774859 413.825269,138.659975 401.049567,150.033918 C392.603114,157.819495 381.936322,162.707819 370.574236,164 C384.824454,161.887483 388.696796,149.329745 389.626158,133.759715 C403.639305,129.758813 414.636253,118.767237 418.74617,104.65393 Z M327.939752,146.12185 C328.71422,147.138987 329.566135,148.195246 330.456774,149.173263 C334.326912,153.554114 339.027772,157.105951 344.281035,159.618484 C362.790829,163.530552 370.109555,152.733245 374.214238,137.554421 C356.749976,140.566713 338.627415,140.449351 327.939752,146.12185 Z M417.971701,99.9985695 C411.814678,111.265325 401.552972,117.133427 389.858499,120.380443 C389.858499,104.732172 388.812967,88.1058831 393.4985,77.3476965 C382.384879,85.1718322 380.332538,104.732172 377.234664,123.158011 C354.000613,126.52239 329.488688,124.096908 321.511664,134.268284 C315.103235,114.206032 321.204302,92.2171825 337.001032,78.4430755 C358.105295,58.8827361 389.703605,59.2739429 407.438931,79.108127 C412.701975,85.0183243 416.334327,92.2226434 417.971701,99.9985695 Z M406.780633,90.6096066 C404.823458,89.0590799 402.131957,88.8598122 399.971943,90.1055192 C397.81193,91.3512262 396.613322,93.7939698 396.939825,96.2849255 C397.266328,98.7758812 399.052957,100.819264 401.459459,101.454069 C403.865961,102.088874 406.41336,101.188754 407.903612,99.1770352 C409.896027,96.487438 409.397307,92.6826064 406.780633,90.6096066 Z" id="Shape" fill="#C5ECF9" fill-rule="nonzero" opacity="0.502301897"></path>
                    </g>
                </g>
            </g>
        </g>
    </g>
</svg>