<svg xmlns="http://www.w3.org/2000/svg" xmlns:xlink="http://www.w3.org/1999/xlink" width="20" height="19" viewBox="0 0 20 19"><defs><path id="fms1a" d="M1342.455 937.218a.52.52 0 0 0-.515.53v4.82c0 1.31-1.037 2.374-2.307 2.374h-11.296c-1.274 0-2.307-1.067-2.307-2.374v-4.898a.52.52 0 0 0-.515-.53.52.52 0 0 0-.515.53v4.898c0 1.895 1.499 3.434 3.337 3.434h11.296c1.842 0 3.336-1.543 3.336-3.434v-4.82c0-.29-.228-.53-.514-.53"/><path id="fms1b" d="M1333.643 942.145a.484.484 0 0 0 .717 0l3.24-3.423c.2-.211.2-.55 0-.762a.49.49 0 0 0-.721 0l-2.367 2.505V929.54c0-.3-.227-.539-.51-.539-.283 0-.51.24-.51.539v10.926l-2.37-2.505a.49.49 0 0 0-.722 0c-.2.211-.2.55 0 .762z"/></defs><g><g transform="translate(-1324 -928)"><use fill="#2996d0" xlink:href="#fms1a"/><use fill="#fff" fill-opacity="0" stroke="#2996d0" stroke-miterlimit="50" stroke-width=".74" xlink:href="#fms1a"/></g><g transform="translate(-1324 -928)"><use fill="#2996d0" xlink:href="#fms1b"/><use fill="#fff" fill-opacity="0" stroke="#2996d0" stroke-miterlimit="50" stroke-width=".74" xlink:href="#fms1b"/></g></g></svg>