<svg xmlns="http://www.w3.org/2000/svg" xmlns:xlink="http://www.w3.org/1999/xlink" width="55" height="36" viewBox="0 0 55 36"><defs><path id="id3fa" d="M84.33 1334.97v-35.94h30.34v35.94z"/><path id="id3fb" d="M76.12 1299.03a4.11 4.11 0 0 0-4.12 4.1v27.73c0 2.27 1.84 4.11 4.12 4.11h8.2v-35.94z"/><path id="id3fc" d="M122.88 1299.03h-8.21v35.94h8.2a4.11 4.11 0 0 0 4.13-4.1v-27.73c0-2.27-1.85-4.11-4.12-4.11z"/><path id="id3fd" d="M105.25 1321.15l5.63-3.2-1.3-.65a.95.95 0 0 1-.5-.97l.41-3.14-2.38.69a.95.95 0 0 1-1.19-.7l-.23-1.04-2.23 2.62c-.31.36-.9.08-.82-.39l.95-5.54-1.46.4a.95.95 0 0 1-1.09-.47l-1.54-2.88-1.54 2.88a.95.95 0 0 1-1.09.47l-1.46-.4.96 5.54c.08.47-.51.75-.83.39l-2.23-2.62-.23 1.03a.95.95 0 0 1-1.2.7l-2.37-.68.42 3.14c.05.4-.16.79-.52.97l-1.29.64 5.63 3.2c.58.34.84 1.05.6 1.67l-.48 1.29 4.82-.41c.27-.03.5.19.49.45l-.15 5.15h.94l-.15-5.15c0-.26.22-.48.49-.45l4.82.4-.48-1.28c-.23-.62.02-1.33.6-1.66z"/></defs><g><g transform="translate(-72 -1299)"><g><use fill="#f5f5f5" xlink:href="#id3fa"/></g><g><g><use fill="#ff4b55" xlink:href="#id3fb"/></g><g><use fill="#ff4b55" xlink:href="#id3fc"/></g><g><use fill="#ff4b55" xlink:href="#id3fd"/></g></g></g></g></svg>