<svg xmlns="http://www.w3.org/2000/svg" viewBox="0 0 51.34 33.51"><title>Car</title><g id="Layer_2" data-name="Layer 2"><g id="Capa_1" data-name="Capa 1"><path d="M51.32,25.62c-.2-1-2-10-2.41-11.32a24.47,24.47,0,0,0-6.75-9.62C38.85,1.71,35.43,0,32.76,0H6.84A2.44,2.44,0,0,0,4.4,2.44V6.27H2.61a1.19,1.19,0,1,0,0,2.38H4.4v2.84H1.19a1.2,1.2,0,0,0,0,2.39H4.4v12a2.45,2.45,0,0,0,2.44,2.44h3a6.15,6.15,0,0,0,12.15,0H32.89a6.15,6.15,0,0,0,12.15,0H48.9a2.44,2.44,0,0,0,2.44-2.44A1.79,1.79,0,0,0,51.32,25.62Zm-4.81-11H34.23V2.6C38.58,3.77,44.61,9.55,46.51,14.66ZM15.88,31.13a3.76,3.76,0,1,1,3.76-3.76A3.76,3.76,0,0,1,15.88,31.13Zm23.08,0a3.76,3.76,0,1,1,3.76-3.76A3.77,3.77,0,0,1,39,31.13Zm9.88-5.23H44.93A6.14,6.14,0,0,0,33,25.9H21.85a6.14,6.14,0,0,0-11.93,0H6.84a0,0,0,0,1,0,0v-12h14.6a1.2,1.2,0,1,0,0-2.39H6.79V8.65h6.72a1.19,1.19,0,0,0,0-2.38H6.79V2.44a.06.06,0,0,1,0-.06h25V15.86A1.2,1.2,0,0,0,33,17.05H47.13c.51,2.32,1.2,6,1.8,8.78C48.94,25.89,48.9,25.9,48.84,25.9Z" style="fill:#fff"/></g></g></svg>