<?xml version="1.0" encoding="UTF-8"?>
<svg width="394px" height="127px" viewBox="0 0 394 127" version="1.1" xmlns="http://www.w3.org/2000/svg" xmlns:xlink="http://www.w3.org/1999/xlink">
    <!-- Generator: Sketch 52 (66869) - http://www.bohemiancoding.com/sketch -->
    <title>Catalogue_zaglushka</title>
    <desc>Created with Sketch.</desc>
    <defs>
        <rect id="path-1" x="0" y="0" width="394" height="127"></rect>
        <polygon id="path-3" points="0 0.9407 199.4789 0.9407 199.4789 94.5047 0 94.5047"></polygon>
        <polygon id="path-5" points="0.5155 0.1252 185.8495 0.1252 185.8495 97 0.5155 97"></polygon>
        <polygon id="path-7" points="0 0.9407 199.4789 0.9407 199.4789 94.5047 0 94.5047"></polygon>
        <polygon id="path-9" points="0.5155 0.1252 185.8495 0.1252 185.8495 97 0.5155 97"></polygon>
    </defs>
    <g id="Page-1" stroke="none" stroke-width="1" fill="none" fill-rule="evenodd">
        <g id="Pharmadis_brands" transform="translate(-83.000000, -1745.000000)">
            <g id="Catalogue_zaglushka" transform="translate(83.000000, 1745.000000)">
                <mask id="mask-2" fill="white">
                    <use xlink:href="#path-1"></use>
                </mask>
                <g id="Mask"></g>
                <g id="Group-4" mask="url(#mask-2)">
                    <g transform="translate(-32.000000, -6.000000)">
                        <g id="Group-11" stroke-width="1" fill="none" fill-rule="evenodd" transform="translate(353.000000, 79.500000) scale(-1, -1) translate(-353.000000, -79.500000) translate(250.000000, 13.000000)">
                            <g id="Group-3" transform="translate(0.000000, 27.205000)">
                                <mask id="mask-4" fill="white">
                                    <use xlink:href="#path-3"></use>
                                </mask>
                                <g id="Clip-2"></g>
                                <path d="M-0.0001,0.9407 C9.0359,4.1547 17.2749,9.2947 24.9709,14.9777 C32.6739,20.6897 39.9849,26.8917 47.2929,33.0727 C54.6069,39.2477 61.8419,45.5067 69.3389,51.4337 C76.8099,57.3987 84.5959,62.9167 92.5849,68.1817 C96.5589,70.8407 100.5519,73.4727 104.5799,76.0427 C106.5949,77.3277 108.6189,78.5957 110.6619,79.8197 L113.7709,81.5747 C114.8069,82.1607 115.8389,82.7537 116.9149,83.2607 L120.1109,84.8497 C121.1789,85.3747 122.2879,85.8057 123.3749,86.2897 C125.5369,87.2867 127.7949,88.0427 130.0239,88.8687 C134.5379,90.3497 139.1309,91.6427 143.8299,92.3977 C148.5079,93.2917 153.2749,93.5567 158.0309,93.6587 L161.6019,93.5477 L163.3869,93.4937 L165.1649,93.3227 L168.7229,92.9697 C169.9069,92.8447 171.0739,92.5927 172.2539,92.4187 C181.6689,90.8857 190.8339,87.8557 199.4789,83.7537 C190.9299,88.0517 181.8129,91.3037 172.3659,93.0637 C171.1839,93.2677 170.0079,93.5267 168.8149,93.6717 L165.2329,94.0737 L163.4409,94.2677 L161.6409,94.3467 L158.0369,94.5047 C153.2319,94.4647 148.4049,94.2557 143.6599,93.4147 C134.1229,91.9777 124.9469,88.6697 116.3609,84.3467 C115.2699,83.8377 114.2239,83.2437 113.1739,82.6557 L110.0239,80.8947 C107.9569,79.6687 105.9199,78.4037 103.8949,77.1237 C99.8439,74.5617 95.8309,71.9467 91.8419,69.2947 C83.8699,63.9927 76.0469,58.3997 68.5809,52.3857 C61.0979,46.3927 53.8319,40.1467 46.6249,33.8507 C39.3999,27.5767 32.1749,21.3027 24.5799,15.4997 C17.0369,9.6617 8.9619,4.3607 -0.0001,0.9407" id="Fill-1" fill="#F1FBFF" mask="url(#mask-4)"></path>
                            </g>
                            <path d="M205.6268,102.966 C200.9688,104.113 196.2428,105.036 191.4478,105.452 C186.6588,105.828 181.8298,105.921 177.0278,105.487 C172.2358,105.025 167.4678,104.229 162.8038,102.999 C158.1508,101.741 153.5758,100.186 149.1418,98.286 C144.7258,96.351 140.4108,94.176 136.2748,91.695 C135.2328,91.089 134.2308,90.42 133.2048,89.786 C132.1818,89.15 131.1658,88.499 130.1728,87.821 C128.1768,86.48 126.2008,85.113 124.2318,83.737 C116.3758,78.219 108.5468,72.632 101.0748,66.562 C86.1758,54.38 72.4838,40.872 58.3458,27.925 C51.2568,21.481 44.0408,15.134 36.1328,9.736 C32.1878,7.038 28.0458,4.596 23.6228,2.769 C19.2248,0.905 14.4398,-0.126 9.6378,0.052 C14.4318,-0.236 19.2738,0.689 23.7438,2.464 C28.2378,4.202 32.4658,6.567 36.4968,9.191 C44.5308,14.511 51.8488,20.796 59.0358,27.159 C66.2238,33.535 73.1678,40.164 80.2508,46.632 C87.3178,53.115 94.4868,59.484 101.9198,65.525 C109.3228,71.592 117.1068,77.195 124.9318,82.741 C126.8908,84.122 128.8558,85.494 130.8358,86.838 C131.8218,87.517 132.8248,88.164 133.8368,88.799 C134.8498,89.432 135.8408,90.099 136.8698,90.703 C140.9648,93.164 145.2058,95.367 149.5528,97.346 C153.9178,99.282 158.4278,100.88 163.0228,102.185 C167.6268,103.466 172.3428,104.303 177.0908,104.839 C181.8448,105.377 186.6438,105.394 191.4228,105.127 C196.2068,104.821 200.9418,104.009 205.6268,102.966" id="Fill-4" fill="#F0F9FD"></path>
                            <g id="Group-8" transform="translate(9.000000, 35.205000)">
                                <mask id="mask-6" fill="white">
                                    <use xlink:href="#path-5"></use>
                                </mask>
                                <g id="Clip-7"></g>
                                <path d="M185.8495,0.1252 C172.2515,7.9122 160.5835,18.4692 149.1475,29.0552 C137.7485,39.7242 126.7135,50.8172 114.9645,61.1472 L106.2665,69.0172 L101.9165,72.9502 L97.4145,76.7342 C91.3185,81.6622 84.8625,86.2002 77.8935,89.8682 C74.4375,91.7532 70.7705,93.2352 67.0515,94.5452 L64.2015,95.3542 L62.7765,95.7572 L61.3205,96.0362 L58.4075,96.5932 L55.4515,96.8712 C54.9575,96.9132 54.4655,96.9722 53.9725,97.0002 L52.4865,96.9862 C51.4955,96.9662 50.5035,96.9902 49.5165,96.9332 C47.5555,96.6492 45.5625,96.5672 43.6545,96.0062 C39.7515,95.2422 36.1305,93.5472 32.6225,91.7652 L32.6065,91.7572 L32.5835,91.7402 C29.2005,89.3602 25.9505,86.7872 22.8985,83.9922 C19.8575,81.1902 16.9635,78.2312 14.2825,75.0892 C8.9015,68.8232 4.2455,61.9412 0.5155,54.5932 C4.4065,61.8562 9.2035,68.6142 14.6935,74.7292 C17.4405,77.7842 20.3575,80.6842 23.4045,83.4332 C26.4635,86.1652 29.7175,88.6762 33.1015,90.9942 L33.0625,90.9702 C36.5235,92.6712 40.0755,94.2842 43.8825,94.9772 C45.7445,95.5032 47.6865,95.5532 49.5915,95.8092 C50.5515,95.8552 51.5165,95.8292 52.4785,95.8452 L53.9225,95.8542 C54.4035,95.8242 54.8825,95.7642 55.3625,95.7212 L58.2395,95.4392 L61.0795,94.8842 L62.4995,94.6052 L63.8925,94.2042 L66.6765,93.4032 C70.3175,92.1032 73.9115,90.6362 77.3115,88.7622 C84.1665,85.1252 90.5295,80.5932 96.5755,75.6992 L101.0605,71.9602 L105.4195,68.0502 L114.1365,60.2292 L122.8495,52.4022 L131.4045,44.4002 C137.0925,39.0472 142.7815,33.6862 148.5555,28.4132 C160.0915,17.9072 172.0875,7.6182 185.8495,0.1252" id="Fill-6" fill="#F1FBFF" mask="url(#mask-6)"></path>
                            </g>
                            <path d="M191.704,29.9758 C183.456,30.9718 175.548,33.7028 168.033,37.1158 C160.489,40.5078 153.285,44.6128 146.234,48.9438 C132.132,57.6168 118.535,67.1248 104.435,75.8908 C97.375,80.2468 90.303,84.5698 83.105,88.7188 C75.895,92.8498 68.322,96.4738 60.305,98.8298 C56.293,99.9548 52.192,100.8728 48.015,101.1298 C45.936,101.3838 43.838,101.2448 41.752,101.2508 C39.675,101.0108 37.578,100.9178 35.548,100.3898 C33.48,100.0438 31.523,99.2868 29.54,98.6498 C28.577,98.2528 27.639,97.7938 26.687,97.3708 C26.217,97.1488 25.733,96.9528 25.274,96.7088 L23.932,95.9128 C20.254,93.9338 17.116,91.1508 14.083,88.3448 C17.192,91.0728 20.39,93.7588 24.091,95.6258 L25.442,96.3798 C25.903,96.6098 26.389,96.7908 26.86,96.9978 C27.812,97.3938 28.751,97.8218 29.712,98.1888 C31.689,98.7648 33.632,99.4618 35.677,99.7468 C37.682,100.2258 39.746,100.2928 41.788,100.4978 C43.842,100.4578 45.901,100.5688 47.943,100.2878 C52.045,99.9748 56.072,99.0098 60.011,97.8408 C67.865,95.3658 75.365,91.8218 82.498,87.6618 C89.645,83.4958 96.697,79.1328 103.729,74.7548 C117.852,66.1068 131.44,56.5788 145.704,48.0658 C152.84,43.8298 160.13,39.8028 167.769,36.5198 C175.41,33.2868 183.433,30.7538 191.704,29.9758" id="Fill-9" fill="#F1FBFF"></path>
                        </g>
                        <g id="Group-11-Copy" stroke-width="1" fill="none" fill-rule="evenodd">
                            <g id="Group-3" transform="translate(0.000000, 27.205000)">
                                <mask id="mask-8" fill="white">
                                    <use xlink:href="#path-7"></use>
                                </mask>
                                <g id="Clip-2"></g>
                                <path d="M-0.0001,0.9407 C9.0359,4.1547 17.2749,9.2947 24.9709,14.9777 C32.6739,20.6897 39.9849,26.8917 47.2929,33.0727 C54.6069,39.2477 61.8419,45.5067 69.3389,51.4337 C76.8099,57.3987 84.5959,62.9167 92.5849,68.1817 C96.5589,70.8407 100.5519,73.4727 104.5799,76.0427 C106.5949,77.3277 108.6189,78.5957 110.6619,79.8197 L113.7709,81.5747 C114.8069,82.1607 115.8389,82.7537 116.9149,83.2607 L120.1109,84.8497 C121.1789,85.3747 122.2879,85.8057 123.3749,86.2897 C125.5369,87.2867 127.7949,88.0427 130.0239,88.8687 C134.5379,90.3497 139.1309,91.6427 143.8299,92.3977 C148.5079,93.2917 153.2749,93.5567 158.0309,93.6587 L161.6019,93.5477 L163.3869,93.4937 L165.1649,93.3227 L168.7229,92.9697 C169.9069,92.8447 171.0739,92.5927 172.2539,92.4187 C181.6689,90.8857 190.8339,87.8557 199.4789,83.7537 C190.9299,88.0517 181.8129,91.3037 172.3659,93.0637 C171.1839,93.2677 170.0079,93.5267 168.8149,93.6717 L165.2329,94.0737 L163.4409,94.2677 L161.6409,94.3467 L158.0369,94.5047 C153.2319,94.4647 148.4049,94.2557 143.6599,93.4147 C134.1229,91.9777 124.9469,88.6697 116.3609,84.3467 C115.2699,83.8377 114.2239,83.2437 113.1739,82.6557 L110.0239,80.8947 C107.9569,79.6687 105.9199,78.4037 103.8949,77.1237 C99.8439,74.5617 95.8309,71.9467 91.8419,69.2947 C83.8699,63.9927 76.0469,58.3997 68.5809,52.3857 C61.0979,46.3927 53.8319,40.1467 46.6249,33.8507 C39.3999,27.5767 32.1749,21.3027 24.5799,15.4997 C17.0369,9.6617 8.9619,4.3607 -0.0001,0.9407" id="Fill-1" fill="#F1FBFF" mask="url(#mask-8)"></path>
                            </g>
                            <path d="M205.6268,102.966 C200.9688,104.113 196.2428,105.036 191.4478,105.452 C186.6588,105.828 181.8298,105.921 177.0278,105.487 C172.2358,105.025 167.4678,104.229 162.8038,102.999 C158.1508,101.741 153.5758,100.186 149.1418,98.286 C144.7258,96.351 140.4108,94.176 136.2748,91.695 C135.2328,91.089 134.2308,90.42 133.2048,89.786 C132.1818,89.15 131.1658,88.499 130.1728,87.821 C128.1768,86.48 126.2008,85.113 124.2318,83.737 C116.3758,78.219 108.5468,72.632 101.0748,66.562 C86.1758,54.38 72.4838,40.872 58.3458,27.925 C51.2568,21.481 44.0408,15.134 36.1328,9.736 C32.1878,7.038 28.0458,4.596 23.6228,2.769 C19.2248,0.905 14.4398,-0.126 9.6378,0.052 C14.4318,-0.236 19.2738,0.689 23.7438,2.464 C28.2378,4.202 32.4658,6.567 36.4968,9.191 C44.5308,14.511 51.8488,20.796 59.0358,27.159 C66.2238,33.535 73.1678,40.164 80.2508,46.632 C87.3178,53.115 94.4868,59.484 101.9198,65.525 C109.3228,71.592 117.1068,77.195 124.9318,82.741 C126.8908,84.122 128.8558,85.494 130.8358,86.838 C131.8218,87.517 132.8248,88.164 133.8368,88.799 C134.8498,89.432 135.8408,90.099 136.8698,90.703 C140.9648,93.164 145.2058,95.367 149.5528,97.346 C153.9178,99.282 158.4278,100.88 163.0228,102.185 C167.6268,103.466 172.3428,104.303 177.0908,104.839 C181.8448,105.377 186.6438,105.394 191.4228,105.127 C196.2068,104.821 200.9418,104.009 205.6268,102.966" id="Fill-4" fill="#F0F9FD"></path>
                            <g id="Group-8" transform="translate(9.000000, 35.205000)">
                                <mask id="mask-10" fill="white">
                                    <use xlink:href="#path-9"></use>
                                </mask>
                                <g id="Clip-7"></g>
                                <path d="M185.8495,0.1252 C172.2515,7.9122 160.5835,18.4692 149.1475,29.0552 C137.7485,39.7242 126.7135,50.8172 114.9645,61.1472 L106.2665,69.0172 L101.9165,72.9502 L97.4145,76.7342 C91.3185,81.6622 84.8625,86.2002 77.8935,89.8682 C74.4375,91.7532 70.7705,93.2352 67.0515,94.5452 L64.2015,95.3542 L62.7765,95.7572 L61.3205,96.0362 L58.4075,96.5932 L55.4515,96.8712 C54.9575,96.9132 54.4655,96.9722 53.9725,97.0002 L52.4865,96.9862 C51.4955,96.9662 50.5035,96.9902 49.5165,96.9332 C47.5555,96.6492 45.5625,96.5672 43.6545,96.0062 C39.7515,95.2422 36.1305,93.5472 32.6225,91.7652 L32.6065,91.7572 L32.5835,91.7402 C29.2005,89.3602 25.9505,86.7872 22.8985,83.9922 C19.8575,81.1902 16.9635,78.2312 14.2825,75.0892 C8.9015,68.8232 4.2455,61.9412 0.5155,54.5932 C4.4065,61.8562 9.2035,68.6142 14.6935,74.7292 C17.4405,77.7842 20.3575,80.6842 23.4045,83.4332 C26.4635,86.1652 29.7175,88.6762 33.1015,90.9942 L33.0625,90.9702 C36.5235,92.6712 40.0755,94.2842 43.8825,94.9772 C45.7445,95.5032 47.6865,95.5532 49.5915,95.8092 C50.5515,95.8552 51.5165,95.8292 52.4785,95.8452 L53.9225,95.8542 C54.4035,95.8242 54.8825,95.7642 55.3625,95.7212 L58.2395,95.4392 L61.0795,94.8842 L62.4995,94.6052 L63.8925,94.2042 L66.6765,93.4032 C70.3175,92.1032 73.9115,90.6362 77.3115,88.7622 C84.1665,85.1252 90.5295,80.5932 96.5755,75.6992 L101.0605,71.9602 L105.4195,68.0502 L114.1365,60.2292 L122.8495,52.4022 L131.4045,44.4002 C137.0925,39.0472 142.7815,33.6862 148.5555,28.4132 C160.0915,17.9072 172.0875,7.6182 185.8495,0.1252" id="Fill-6" fill="#F1FBFF" mask="url(#mask-10)"></path>
                            </g>
                            <path d="M191.704,29.9758 C183.456,30.9718 175.548,33.7028 168.033,37.1158 C160.489,40.5078 153.285,44.6128 146.234,48.9438 C132.132,57.6168 118.535,67.1248 104.435,75.8908 C97.375,80.2468 90.303,84.5698 83.105,88.7188 C75.895,92.8498 68.322,96.4738 60.305,98.8298 C56.293,99.9548 52.192,100.8728 48.015,101.1298 C45.936,101.3838 43.838,101.2448 41.752,101.2508 C39.675,101.0108 37.578,100.9178 35.548,100.3898 C33.48,100.0438 31.523,99.2868 29.54,98.6498 C28.577,98.2528 27.639,97.7938 26.687,97.3708 C26.217,97.1488 25.733,96.9528 25.274,96.7088 L23.932,95.9128 C20.254,93.9338 17.116,91.1508 14.083,88.3448 C17.192,91.0728 20.39,93.7588 24.091,95.6258 L25.442,96.3798 C25.903,96.6098 26.389,96.7908 26.86,96.9978 C27.812,97.3938 28.751,97.8218 29.712,98.1888 C31.689,98.7648 33.632,99.4618 35.677,99.7468 C37.682,100.2258 39.746,100.2928 41.788,100.4978 C43.842,100.4578 45.901,100.5688 47.943,100.2878 C52.045,99.9748 56.072,99.0098 60.011,97.8408 C67.865,95.3658 75.365,91.8218 82.498,87.6618 C89.645,83.4958 96.697,79.1328 103.729,74.7548 C117.852,66.1068 131.44,56.5788 145.704,48.0658 C152.84,43.8298 160.13,39.8028 167.769,36.5198 C175.41,33.2868 183.433,30.7538 191.704,29.9758" id="Fill-9" fill="#F1FBFF"></path>
                        </g>
                        <path d="M257.845163,63.7988975 C258.860022,74.2426642 254.843414,84.5425846 247.050236,91.4806898 C241.897899,96.2298922 235.391156,99.2117699 228.460284,100 C237.152917,98.7113648 239.515046,91.0511447 240.081957,81.5534263 C248.629976,79.1128759 255.338114,72.4080146 257.845163,63.7988975 Z M202.453249,89.0943284 C202.925674,89.7147823 203.445343,90.3590999 203.988632,90.9556903 C206.349416,93.6280093 209.216941,95.7946304 212.421431,97.3272752 C223.712406,99.7136366 228.176829,93.1272791 230.680685,83.8681969 C220.027485,85.7056952 208.972723,85.6341043 202.453249,89.0943284 Z M257.372738,60.9591274 C253.616953,67.8318482 247.357313,71.4113904 240.223684,73.3920703 C240.223684,63.8466247 239.58591,53.7045887 242.444085,47.1420948 C235.664776,51.9148177 234.412848,63.8466247 232.523145,75.0863869 C218.350374,77.1386577 203.3981,75.6591137 198.532115,81.8636533 C194.622973,69.6256793 198.344625,56.2124813 207.980629,47.810276 C220.85423,35.878469 240.129199,36.1171051 250.947748,48.2159575 C254.158205,51.8211778 256.373939,56.2158125 257.372738,60.9591274 Z M250.546186,55.23186 C249.35231,54.2860388 247.710494,54.1644855 246.392885,54.9243667 C245.075277,55.684248 244.344126,57.1743216 244.543293,58.6938046 C244.74246,60.2132875 245.832304,61.459751 247.30027,61.8469821 C248.768236,62.2342132 250.32215,61.6851398 251.231203,60.4579915 C252.446576,58.8173372 252.142357,56.4963899 250.546186,55.23186 Z" id="Shape" fill="#C5ECF9" fill-rule="nonzero" opacity="0.502301897"></path>
                    </g>
                </g>
            </g>
        </g>
    </g>
</svg>