<svg xmlns="http://www.w3.org/2000/svg" xmlns:xlink="http://www.w3.org/1999/xlink" width="18" height="18" viewBox="0 0 18 18"><defs><path id="u89ga" d="M1055 3186v-18h18v18zm1-5a4 4 0 0 0 4 4h8a4 4 0 0 0 4-4v-8a4 4 0 0 0-4-4h-8a4 4 0 0 0-4 4z"/><path id="u89gb" d="M1056 3173a4 4 0 0 1 4-4h8a4 4 0 0 1 4 4v8a4 4 0 0 1-4 4h-8a4 4 0 0 1-4-4z"/><path id="u89gd" d="M1059 3176.7l4.38 4.3 5.62-8"/><clipPath id="u89gc"><use fill="#fff" xlink:href="#u89ga"/></clipPath></defs><g><g transform="translate(-1055 -3168)"><use fill="#56bdf3" xlink:href="#u89gb"/><use fill="#fff" fill-opacity="0" stroke="#56bdf3" stroke-miterlimit="50" stroke-width="2" clip-path="url(&quot;#u89gc&quot;)" xlink:href="#u89gb"/></g><g transform="translate(-1055 -3168)"><use fill="#fff" fill-opacity="0" stroke="#fff" stroke-linecap="round" stroke-linejoin="round" stroke-miterlimit="50" stroke-width="1.23" xlink:href="#u89gd"/></g></g></svg>