<svg xmlns="http://www.w3.org/2000/svg" xmlns:xlink="http://www.w3.org/1999/xlink" width="26" height="25" viewBox="0 0 26 25"><defs><path id="vrrqa" d="M1345.27 937.12a.7.7 0 0 0-.68.71v6.52a3.15 3.15 0 0 1-3.08 3.22h-15.06a3.15 3.15 0 0 1-3.08-3.22v-6.62a.7.7 0 0 0-.68-.72.7.7 0 0 0-.69.72v6.62c0 2.57 2 4.65 4.45 4.65h15.06a4.56 4.56 0 0 0 4.45-4.65v-6.52a.7.7 0 0 0-.69-.71"/><path id="vrrqb" d="M1333.52 943.78c.14.14.31.22.48.22.17 0 .35-.07.48-.22l4.32-4.63a.76.76 0 0 0 0-1.03.65.65 0 0 0-.96 0l-3.16 3.4v-14.8c0-.4-.3-.72-.68-.72-.38 0-.68.32-.68.73v14.78l-3.16-3.39a.65.65 0 0 0-.96 0 .76.76 0 0 0 0 1.03z"/></defs><g><g transform="translate(-1321 -925)"><use fill="#2996d0" xlink:href="#vrrqa"/><use fill="#fff" fill-opacity="0" stroke="#2996d0" stroke-miterlimit="50" xlink:href="#vrrqa"/></g><g transform="translate(-1321 -925)"><use fill="#2996d0" xlink:href="#vrrqb"/><use fill="#fff" fill-opacity="0" stroke="#2996d0" stroke-miterlimit="50" xlink:href="#vrrqb"/></g></g></svg>