<svg xmlns="http://www.w3.org/2000/svg" viewBox="0 0 49.7 54"><title>Drill</title><g id="Layer_2" data-name="Layer 2"><g id="Capa_1" data-name="Capa 1"><path d="M.47,18.24A10.55,10.55,0,0,1,5.8,11.85L19.91,4.61A10.58,10.58,0,0,1,30.28,5a1.31,1.31,0,0,1,.56-.58,5.25,5.25,0,0,1,4-.37,5.14,5.14,0,0,1,2.3,1.49,1.21,1.21,0,0,1,.47-.4l10.22-5a1.31,1.31,0,0,1,1.74.6A1.29,1.29,0,0,1,49,2.47l-10.22,5a1.09,1.09,0,0,1-.43.11,5.26,5.26,0,0,1-2.59,6.11,1.21,1.21,0,0,1-.3.11,10.59,10.59,0,0,1-6,9.92l-1.19.57a6.54,6.54,0,0,1,2.12,5c-.23,2.85-2.8,5.42-7.64,7.65l3.18,5.42,1.49-.83a1.34,1.34,0,0,1,1-.11,1.29,1.29,0,0,1,.77.64l1.55,2.86a1.31,1.31,0,0,1-.49,1.74L17.94,53.82a1.28,1.28,0,0,1-.66.18,1.33,1.33,0,0,1-.34,0,1.31,1.31,0,0,1-.8-.62L1.35,26.52A10.55,10.55,0,0,1,.47,18.24ZM35.81,9.82a2.63,2.63,0,0,0-3.46-3.24A10.23,10.23,0,0,1,34,8.7l0,.08a10.78,10.78,0,0,1,1,2.27A2.6,2.6,0,0,0,35.81,9.82Zm-8,19.26c.13-1.47-1.13-2.84-2-3.58l-7.56,3.67,3.23,5.5C25.36,32.89,27.61,30.92,27.76,29.08ZM3.63,25.26,17.78,50.9l10-5.86-.32-.6-1.46.8a1.3,1.3,0,0,1-1.75-.49L15.21,29.27a1.3,1.3,0,0,1,.56-1.83L28.3,21.36a8.06,8.06,0,0,0,3.51-11.21s0-.05,0-.08a8.11,8.11,0,0,0-7-4,7.91,7.91,0,0,0-3.68.9L7,14.17A8.06,8.06,0,0,0,3.63,25.26Z" style="fill:#fff"/><path d="M14.19,12.76l8.92-4.9a1.3,1.3,0,1,1,1.25,2.29L15.45,15a1.3,1.3,0,0,1-1.26-2.28Z" style="fill:#fff"/><path d="M17,16.71l8.91-4.9a1.31,1.31,0,0,1,1.77.52,1.29,1.29,0,0,1-.51,1.76L18.26,19a1.27,1.27,0,0,1-.62.16,1.29,1.29,0,0,1-1.14-.67A1.3,1.3,0,0,1,17,16.71Z" style="fill:#fff"/><path d="M20,20.66l8.92-4.9A1.3,1.3,0,0,1,30.15,18l-8.92,4.9a1.25,1.25,0,0,1-.62.16,1.29,1.29,0,0,1-1.14-.67A1.3,1.3,0,0,1,20,20.66Z" style="fill:#fff"/></g></g></svg>