<svg xmlns="http://www.w3.org/2000/svg" width="31" height="33" viewBox="0 0 31 33">
    <g fill="#FFF">
        <path d="M-819-1854H621v4630H-819z"/>
        <g fill-rule="nonzero">
            <path d="M10.848 32.28a.753.753 0 0 0 .384-.106l7.202-4.257a.778.778 0 0 0 .287-1.033l-.905-1.703a.768.768 0 0 0-.456-.375.751.751 0 0 0-.584.064l-.877.489-4.532-7.826 6.606-3.243a6.334 6.334 0 0 0 3.252-3.84 6.425 6.425 0 0 0-.587-5.07 6.238 6.238 0 0 0-5.4-3.13c-.985 0-1.972.242-2.852.7L4.114 7.249a6.263 6.263 0 0 0-3.13 3.796 6.356 6.356 0 0 0 .517 4.918l8.678 15.918a.763.763 0 0 0 .669.399zm6.18-5.321l-5.89 3.482-8.302-15.227a4.808 4.808 0 0 1-.392-3.72 4.737 4.737 0 0 1 2.366-2.87l8.272-4.3a4.634 4.634 0 0 1 2.157-.529 4.737 4.737 0 0 1 4.13 2.444 4.778 4.778 0 0 1 .397 3.757 4.728 4.728 0 0 1-2.458 2.903l-7.35 3.609a.767.767 0 0 0-.398.47.781.781 0 0 0 .072.616l5.326 9.195a.757.757 0 0 0 1.026.286l.853-.475.19.359z"/>
            <path d="M21.162 8.41c.112 0 .227-.03.333-.092.683-.4 1.186-1.073 1.414-1.894a3.524 3.524 0 0 0-.203-2.454c-.36-.76-.964-1.32-1.701-1.574a2.61 2.61 0 0 0-2.203.226c-.35.206-.484.69-.3 1.08.185.39.62.539.97.334a1.312 1.312 0 0 1 1.108-.115c.372.129.676.41.857.794.181.383.218.822.102 1.235a1.581 1.581 0 0 1-.711.955c-.351.205-.486.688-.301 1.079a.71.71 0 0 0 .635.426z"/>
            <path d="M23.447 7.64a.82.82 0 0 0 .378-.092c1.394-.722 1.93-2.425 1.196-3.796a2.824 2.824 0 0 0-1.68-1.374 2.875 2.875 0 0 0-2.178.197.793.793 0 0 0-.34 1.08c.21.39.7.54 1.098.334a1.243 1.243 0 0 1 1.663.508 1.203 1.203 0 0 1-.516 1.637.794.794 0 0 0-.34 1.08.814.814 0 0 0 .72.426z"/>
            <path d="M23.822 4.56a.764.764 0 0 0 .342-.08l6.137-3.035a.796.796 0 0 0 .36-1.06.776.776 0 0 0-1.045-.364l-6.137 3.035a.796.796 0 0 0-.36 1.06.78.78 0 0 0 .703.444zM13.03 22.27c.1 0 .203-.02.3-.06 3.228-1.331 4.937-2.888 5.08-4.628.178-2.163-2.146-3.607-2.244-3.667a.784.784 0 0 0-1.062.234.733.733 0 0 0 .24 1.028c.456.282 1.621 1.244 1.532 2.291-.095 1.108-1.568 2.305-4.147 3.369a.737.737 0 0 0-.407.979.77.77 0 0 0 .708.454zM9.194 9.18a.77.77 0 0 0 .376-.099l5.364-3.017a.811.811 0 0 0 .309-1.088.773.773 0 0 0-1.063-.317L8.816 7.676a.812.812 0 0 0-.31 1.088.78.78 0 0 0 .688.416zM10.734 12.26a.77.77 0 0 0 .376-.1l5.364-3.016a.812.812 0 0 0 .31-1.088.773.773 0 0 0-1.064-.316l-5.364 3.016a.811.811 0 0 0-.31 1.088.78.78 0 0 0 .688.416zM13.044 14.57a.765.765 0 0 0 .376-.1l5.364-3.016a.81.81 0 0 0 .309-1.088.773.773 0 0 0-1.063-.317l-5.364 3.017a.811.811 0 0 0-.31 1.088.78.78 0 0 0 .688.416z"/>
        </g>
    </g>
</svg>
