<svg xmlns="http://www.w3.org/2000/svg" xmlns:xlink="http://www.w3.org/1999/xlink" width="48" height="49" viewBox="0 0 48 49"><defs><path id="uk1oa" d="M436 1398a23 23 0 1 1 46 0 23 23 0 0 1-46 0z"/><path id="uk1od" d="M465.4 1398.98c-1.36 1.6-5.07 4.91-6.4 6.09-1.34-1.18-5.05-4.48-6.4-6.09a3.93 3.93 0 0 1-.03-5.21 3.31 3.31 0 0 1 2.42-1.07c.88 0 1.76.35 2.43 1.07l1 1.07c.12.12.26.2.42.22.26.06.53-.01.73-.22l1-1.07a3.28 3.28 0 0 1 4.85 0 3.93 3.93 0 0 1-.03 5.21zm1.15-6.41a4.8 4.8 0 0 0-7.1 0l-.45.48-.45-.48a4.8 4.8 0 0 0-7.1 0 5.69 5.69 0 0 0-.03 7.55c1.73 2.06 6.84 6.5 7.06 6.69.15.13.33.19.5.19h.02c.18 0 .37-.06.52-.2.21-.18 5.33-4.62 7.06-6.68a5.7 5.7 0 0 0-.03-7.55z"/><mask id="uk1oc" width="2" height="2" x="-1" y="-1"><path fill="#fff" d="M436 1375h46v46h-46z"/><use xlink:href="#uk1oa"/></mask><filter id="uk1ob" width="71" height="71" x="424" y="1363" filterUnits="userSpaceOnUse"><feOffset dx="1" dy="1" in="SourceGraphic" result="FeOffset1023Out"/><feGaussianBlur in="FeOffset1023Out" result="FeGaussianBlur1024Out" stdDeviation="0.8 0.8"/></filter></defs><g><g transform="translate(-436 -1375)"><g filter="url(#uk1ob)"><use fill="none" stroke-opacity=".09" stroke-width="0" mask="url(&quot;#uk1oc&quot;)" xlink:href="#uk1oa"/><use fill-opacity=".09" xlink:href="#uk1oa"/></g><use fill="#c5ecf9" xlink:href="#uk1oa"/></g><g transform="translate(-436 -1375)"><use fill="#2996d0" xlink:href="#uk1od"/></g></g></svg>