<svg xmlns="http://www.w3.org/2000/svg" width="26" height="26" viewBox="0 0 26 26">
    <g fill="none" fill-rule="evenodd">
        <circle cx="13" cy="13" r="13" fill="#3B5998"/>
        <path fill="#F0F0F0" fill-rule="nonzero" d="M15.975 6.503L14.22 6.5c-1.97 0-3.244 1.256-3.244 3.2v1.474H9.213a.27.27 0 0 0-.275.266v2.137a.27.27 0 0 0 .275.265h1.764v5.393a.27.27 0 0 0 .276.265h2.3a.27.27 0 0 0 .276-.265v-5.393h2.062a.27.27 0 0 0 .276-.265V11.44a.26.26 0 0 0-.08-.188.282.282 0 0 0-.195-.078h-2.063v-1.25c0-.601.15-.906.964-.906h1.181a.27.27 0 0 0 .276-.266V6.768a.27.27 0 0 0-.275-.265z"/>
    </g>
</svg>
