<svg xmlns="http://www.w3.org/2000/svg" xmlns:xlink="http://www.w3.org/1999/xlink" width="73" height="35" viewBox="0 0 73 35">
    <defs>
        <path id="a" d="M0 .033h9.589v9.55H0z"/>
        <path id="c" d="M.217.558h9.38V11H.217z"/>
    </defs>
    <g fill="none" fill-rule="evenodd">
        <path fill="#" d="M-548-2154H892v4522H-548z"/>
        <g transform="rotate(-4 6.891 3.698)">
            <mask id="b" fill="#fff">
                <use xlink:href="#a"/>
            </mask>
            <path fill="#2996D0" d="M.639 7.027A4.448 4.448 0 0 1-.001 4.7c.004-.826.236-1.622.694-2.388.458-.766 1.05-1.346 1.78-1.738A4.509 4.509 0 0 1 4.83.037c.843.034 1.659.287 2.447.76a5.17 5.17 0 0 1 1.552 1.38c.395.538.648 1.13.759 1.771l-1.465.321c-.2-.947-.714-1.668-1.54-2.162-.535-.319-1.085-.489-1.65-.509a2.968 2.968 0 0 0-1.575.383 3.263 3.263 0 0 0-1.204 1.204c-.316.53-.48 1.072-.491 1.631a2.95 2.95 0 0 0 .41 1.57c.285.488.694.892 1.23 1.211.825.494 1.705.601 2.64.322l.404 1.453a4.165 4.165 0 0 1-1.925.167 5.24 5.24 0 0 1-1.958-.716c-.788-.47-1.397-1.069-1.826-1.796" mask="url(#b)"/>
        </g>
        <path fill="#2996D0" d="M16.661 13.98l-.598 1.3-6.093-2.804.472-1.027L15.16 9.84c.532-.185.924-.379 1.176-.583.251-.204.436-.436.556-.696.177-.385.183-.74.017-1.064-.165-.324-.5-.602-1.004-.835-.843-.387-1.62-.396-2.333-.028l-.695-1.32c.522-.285 1.112-.422 1.769-.41.657.01 1.326.172 2.003.484.898.413 1.516.955 1.856 1.627.34.67.341 1.372.006 2.104-.208.45-.496.827-.866 1.135-.37.306-.939.588-1.707.846l-3.175 1.086 3.898 1.793zM22.6 15.77c.557-.346 1.047-1.008 1.468-1.988.42-.978.564-1.79.43-2.433-.135-.642-.501-1.091-1.098-1.347-.59-.254-1.163-.208-1.721.136-.558.346-1.05 1.008-1.469 1.987-.42.98-.563 1.791-.43 2.434.135.642.496 1.09 1.086 1.343.597.257 1.175.212 1.733-.132m-3.887.205c-.38-.565-.582-1.236-.605-2.015-.024-.779.155-1.615.537-2.506.384-.892.866-1.597 1.447-2.117.582-.519 1.208-.834 1.88-.948.67-.113 1.34-.025 2.009.262a3.551 3.551 0 0 1 1.579 1.28c.384.566.588 1.238.612 2.017.025.78-.155 1.615-.538 2.506-.383.893-.865 1.598-1.447 2.117-.581.52-1.209.834-1.884.946a3.558 3.558 0 0 1-2.015-.266c-.67-.287-1.195-.713-1.575-1.276M31.148 11.765l-3.41 8.437-1.569-.634 2.88-7.123-1.782-.721.53-1.313zM35.588 13.5l-3.28 8.488-1.578-.61 2.77-7.166-1.795-.694.512-1.32zM46.325 18.902l-4.257-1.495-2.529 7.242-1.57-.552 3.015-8.586 5.826 2.045zM50.198 26.367a2.948 2.948 0 0 0 1.44-.738c.414-.38.714-.859.9-1.437a3.276 3.276 0 0 0 .109-1.693 2.967 2.967 0 0 0-.739-1.44 3.298 3.298 0 0 0-1.433-.892 3.288 3.288 0 0 0-1.685-.113 2.97 2.97 0 0 0-1.44.738 3.278 3.278 0 0 0-.9 1.438 3.272 3.272 0 0 0-.108 1.693c.113.552.36 1.032.738 1.44.378.409.856.706 1.433.893a3.29 3.29 0 0 0 1.685.111m-4.342-.047a4.476 4.476 0 0 1-1.156-2.135c-.185-.81-.141-1.636.13-2.477.27-.842.718-1.537 1.341-2.088a4.481 4.481 0 0 1 2.185-1.057c.833-.156 1.69-.091 2.573.194.884.285 1.617.733 2.203 1.344a4.494 4.494 0 0 1 1.158 2.129c.187.807.142 1.635-.131 2.484-.274.85-.722 1.548-1.344 2.094a4.49 4.49 0 0 1-2.183 1.053c-.833.153-1.69.089-2.574-.195-.882-.284-1.616-.733-2.202-1.346M57.167 27.078c-.357.714-.736 1.188-1.137 1.426l4.437 1.268 1.714-6-3.424-.978-.506 1.53c-.366 1.123-.726 2.04-1.084 2.754zm6.162 3.513l-.926 3.237-1.5-.43.533-1.862-6.712-1.92-.532 1.864-1.514-.433.94-3.233.374.107c.557.132 1.059-.165 1.504-.888.447-.725.904-1.813 1.374-3.265l.893-2.746 6.412 1.833-2.109 7.374 1.263.362z"/>
        <g transform="rotate(-4 377.299 -883.707)">
            <mask id="d" fill="#fff">
                <use xlink:href="#c"/>
            </mask>
            <path fill="#2996D0" d="M7.585 6.733L7.188 2.42 4.334 5.671l3.251 1.062zm.119 1.434L3.379 6.755 1.873 8.48.217 7.94 6.934.558l1.582.515L9.597 11l-1.681-.549-.212-2.284z" mask="url(#d)"/>
        </g>
    </g>
</svg>
