<svg xmlns="http://www.w3.org/2000/svg" viewBox="0 0 54.5 54.5"><title>Hospital</title><g id="Layer_2" data-name="Layer 2"><g id="Capa_1" data-name="Capa 1"><path d="M27.25,43.22a1.07,1.07,0,1,0,1.06,1.06A1.05,1.05,0,0,0,27.25,43.22ZM53.44,34.7H52.37V21.93h1.07a1.07,1.07,0,0,0,0-2.13H41.09v-6a3.2,3.2,0,0,0-3.2-3.2H34a7.45,7.45,0,1,0-13.46,0H16.61a3.2,3.2,0,0,0-3.2,3.2v6H1.06a1.07,1.07,0,0,0,0,2.13H2.13V34.7H1.06a1.07,1.07,0,0,0,0,2.13H2.13V53.44A1.07,1.07,0,0,0,3.19,54.5H51.31a1.07,1.07,0,0,0,1.06-1.06V36.83h1.07a1.07,1.07,0,0,0,0-2.13Zm-40,17.67H4.26V36.83h9.15Zm0-17.67H4.26V21.93h9.15ZM27.25,2.13a5.32,5.32,0,0,1,4,8.84l0,0a5.34,5.34,0,0,1-7.94,0l0,0a5.32,5.32,0,0,1,4-8.84Zm5.32,50.24H28.31V48.54a1.06,1.06,0,1,0-2.12,0v3.83H21.93V42.15A1.07,1.07,0,0,1,23,41.09h8.52a1.07,1.07,0,0,1,1.06,1.06ZM39,20.86V52.37H34.7V42.15A3.19,3.19,0,0,0,31.51,39H23a3.19,3.19,0,0,0-3.19,3.19V52.37H15.54V13.84a1.07,1.07,0,0,1,1.07-1.07H22a7.44,7.44,0,0,0,10.42,0h5.43A1.07,1.07,0,0,1,39,13.84ZM50.24,52.37H41.09V36.83h9.15Zm0-17.67H41.09V21.93h9.15ZM47.05,24.06H44.28a1.07,1.07,0,0,0,0,2.13h2.77a1.07,1.07,0,0,0,0-2.13Zm0,6.38H44.28a1.07,1.07,0,0,0,0,2.13h2.77a1.07,1.07,0,0,0,0-2.13Zm0,8.52H44.28a1.07,1.07,0,0,0,0,2.13h2.77a1.07,1.07,0,0,0,0-2.13Zm0,6.39H44.28a1.06,1.06,0,1,0,0,2.12h2.77a1.06,1.06,0,1,0,0-2.12Zm-36.83,0H7.45a1.06,1.06,0,1,0,0,2.12h2.77a1.06,1.06,0,0,0,0-2.12Zm0-6.39H7.45a1.07,1.07,0,0,0,0,2.13h2.77a1.07,1.07,0,0,0,0-2.13Zm0-8.52H7.45a1.07,1.07,0,0,0,0,2.13h2.77a1.07,1.07,0,0,0,0-2.13Zm0-6.38H7.45a1.07,1.07,0,0,0,0,2.13h2.77a1.07,1.07,0,0,0,0-2.13ZM20.86,19.8H18.73a1.07,1.07,0,0,0,0,2.13h2.13a1.07,1.07,0,1,0,0-2.13Zm8.52,0H25.12a1.07,1.07,0,0,0,0,2.13h4.26a1.07,1.07,0,0,0,0-2.13Zm6.39,0H33.64a1.07,1.07,0,1,0,0,2.13h2.13a1.07,1.07,0,0,0,0-2.13ZM20.86,26.19H18.73a1.06,1.06,0,0,0,0,2.12h2.13a1.06,1.06,0,1,0,0-2.12Zm8.52,0H25.12a1.06,1.06,0,0,0,0,2.12h4.26a1.06,1.06,0,1,0,0-2.12Zm6.39,0H33.64a1.06,1.06,0,1,0,0,2.12h2.13a1.06,1.06,0,0,0,0-2.12ZM20.86,32.57H18.73a1.07,1.07,0,0,0,0,2.13h2.13a1.07,1.07,0,1,0,0-2.13Zm8.52,0H25.12a1.07,1.07,0,0,0,0,2.13h4.26a1.07,1.07,0,0,0,0-2.13Zm6.39,0H33.64a1.07,1.07,0,1,0,0,2.13h2.13a1.07,1.07,0,0,0,0-2.13ZM29.38,6.39H28.31V5.32a1.06,1.06,0,0,0-2.12,0V6.39H25.12a1.07,1.07,0,0,0,0,2.13h1.07V9.58a1.06,1.06,0,0,0,2.12,0V8.52h1.07a1.07,1.07,0,0,0,0-2.13Z" style="fill:#fff"/></g></g></svg>