<svg xmlns="http://www.w3.org/2000/svg" width="16" height="16" viewBox="0 0 16 16">
    <g fill="none" fill-rule="evenodd">
        <path fill="" d="M-1024-558H416V926h-1440z"/>
        <path fill="#C4C4C4" fill-rule="nonzero" d="M15.788 7.78a.802.802 0 0 0-.063-1.124L8.58.216a.871.871 0 0 0-1.162.013l-7.17 6.77a.797.797 0 0 0-.034 1.123l.18.193c.298.32.78.358 1.076.085l.536-.495v7.237c0 .444.349.804.78.804H5.58c.431 0 .78-.36.78-.804V10.08h3.565v5.063c-.006.444.302.804.733.804h2.961c.431 0 .78-.36.78-.804V8.007l.33.3c.183.164.566.032.856-.297l.203-.23z"/>
    </g>
</svg>
