<svg xmlns="http://www.w3.org/2000/svg" width="26" height="26" viewBox="0 0 26 26">
    <g fill="none" fill-rule="evenodd">
        <circle cx="13" cy="13" r="13" fill="#E12F67"/>
        <g fill="#F0F0F0" fill-rule="nonzero">
            <path d="M16.445 6.5h-6.154C8.2 6.5 6.5 8.2 6.5 10.29v6.156c0 2.09 1.7 3.79 3.79 3.79h6.155c2.09 0 3.791-1.7 3.791-3.79V10.29c0-2.09-1.7-3.791-3.79-3.791zm2.573 9.946a2.575 2.575 0 0 1-2.572 2.572H10.29a2.575 2.575 0 0 1-2.572-2.572V10.29a2.575 2.575 0 0 1 2.572-2.572h6.154a2.575 2.575 0 0 1 2.573 2.572v6.155z"/>
            <path d="M13.368 9.829a3.543 3.543 0 0 0-3.54 3.54 3.543 3.543 0 0 0 3.54 3.539 3.543 3.543 0 0 0 3.54-3.54 3.543 3.543 0 0 0-3.54-3.54zm0 5.86a2.323 2.323 0 0 1-2.32-2.32c0-1.28 1.04-2.322 2.32-2.322 1.28 0 2.32 1.042 2.32 2.321 0 1.28-1.04 2.32-2.32 2.32zM17.056 8.795a.897.897 0 0 0-.894.894c0 .235.096.466.263.632a.9.9 0 0 0 .631.262.903.903 0 0 0 .632-.262.898.898 0 0 0 0-1.264.898.898 0 0 0-.632-.262z"/>
        </g>
    </g>
</svg>
