<svg xmlns="http://www.w3.org/2000/svg" xmlns:xlink="http://www.w3.org/1999/xlink" width="55" height="36" viewBox="0 0 55 36"><defs><path id="bbbma" d="M569.88 861.03h-46.76a4.11 4.11 0 0 0-4.12 4.1v27.73c0 2.27 1.84 4.11 4.12 4.11h46.76a4.11 4.11 0 0 0 4.12-4.1v-27.73c0-2.27-1.84-4.11-4.12-4.11z"/><path id="bbbmb" d="M536.07 879c0-5.74 4.67-10.4 10.43-10.4s10.43 4.66 10.43 10.4c0 5.75-4.67 10.41-10.43 10.41a10.42 10.42 0 0 1-10.43-10.4z"/></defs><g><g transform="translate(-519 -861)"><g><use fill="#f5f5f5" xlink:href="#bbbma"/></g><g><use fill="#ff4b55" xlink:href="#bbbmb"/></g></g></g></svg>