<svg xmlns="http://www.w3.org/2000/svg" width="1120" height="4050" viewBox="0 0 1120 4050">
    <g fill="none" fill-rule="evenodd">
        <g fill-rule="nonzero">
            <path fill="#F1FBFF" d="M913.83 2590.52a771.74 771.74 0 0 0-93.89-214.35c-42.79-68-96.6-131.42-156.4-190.87-59.8-59.45-125.08-115.43-190.35-171.17-65.27-55.74-130.51-111.6-190.19-171-59.68-59.4-113.38-122.64-156.08-190.43a770.62 770.62 0 0 1-94-213.71 784.48 784.48 0 0 1-21.54-112 1008.9 1008.9 0 0 1-6.69-113.21c.32-75.56 8.13-151.29 28.22-225.25a770.62 770.62 0 0 1 94-213.71C169.62 707 223.28 643.66 283 584.32s124.93-115.3 190.2-171c65.27-55.7 130.55-111.68 190.34-171.21 13.148-13.091 26.008-26.368 38.525-39.838-12.686 10.283-26.539 24.512-40.675 38.518-59.84 59.29-125.13 115.21-190.5 170.84-65.37 55.63-130.75 111.5-190.65 171-59.9 59.5-113.85 122.79-156.83 190.76a774.08 774.08 0 0 0-94.7 214.37C8.42 1062 .46 1137.94 0 1213.71c.44 75.76 8.41 151.74 28.7 225.94A773.88 773.88 0 0 0 123.41 1654c43 68 96.9 131.38 156.82 190.77 59.92 59.39 125.29 115.31 190.66 171 65.37 55.69 130.7 111.45 190.5 170.84C721.19 2246 775 2309.19 817.89 2377a772.38 772.38 0 0 1 94.81 213.7c18.9 68.64 27.21 138.85 28.78 209-1.57 70.16-9.88 140.35-28.77 209a772.9 772.9 0 0 1-94.81 213.74c-42.9 67.77-96.67 131.05-156.51 190.34-59.84 59.29-125.13 115.22-190.5 170.85-65.37 55.63-130.75 111.5-190.65 171-59.9 59.5-113.85 122.81-156.83 190.78a774.08 774.08 0 0 0-94.7 214.37C8.42 4234 .46 4309.94 0 4385.71c.44 75.76 8.41 151.74 28.7 225.94A773.88 773.88 0 0 0 123.41 4826c43 68 96.9 131.38 156.82 190.77 59.92 59.39 125.29 115.31 190.66 171 65.37 55.69 130.7 111.45 190.5 170.84C721.19 5418 775 5481.19 817.89 5549a772.38 772.38 0 0 1 94.81 213.7c20.38 74 28.45 149.85 29 225.51-.21-75.66-7.89-151.55-27.91-225.69a771.74 771.74 0 0 0-93.89-214.35c-42.79-68-96.6-131.42-156.4-190.87-59.8-59.45-125.08-115.43-190.35-171.17-65.27-55.74-130.51-111.6-190.19-171-59.68-59.4-113.38-122.64-156.08-190.43a770.62 770.62 0 0 1-94-213.71 784.48 784.48 0 0 1-21.54-112 1008.9 1008.9 0 0 1-6.69-113.21c.32-75.56 8.13-151.29 28.22-225.25a770.62 770.62 0 0 1 94-213.71c42.75-67.82 96.41-131.16 156.13-190.5s124.93-115.3 190.2-171c65.27-55.7 130.56-111.65 190.35-171.18 59.79-59.53 113.61-122.89 156.4-190.87a772 772 0 0 0 93.89-214.35c18.38-68.1 26.36-137.67 27.7-207.19.127-7.5.183-12.997.21-18.49-1.55-55.03-9.53-124.61-27.92-192.72z"/>
            <path fill="#F1FBFF" d="M996.56 3945.39c-43-68-96.92-131.39-156.86-190.78-59.94-59.39-125.31-115.31-190.7-171-65.39-55.69-130.73-111.46-190.54-170.85s-113.64-122.56-156.53-190.34a772.21 772.21 0 0 1-94.84-213.73c-18.9-68.64-27.21-138.84-28.79-209 1.58-70.17 9.89-140.36 28.79-209A772.31 772.31 0 0 1 301.92 2377c42.91-67.78 96.69-131 156.54-190.34 59.85-59.34 125.16-115.2 190.54-170.87s130.79-111.51 190.7-171C899.61 1785.3 953.58 1722 996.56 1654a774 774 0 0 0 94.73-214.37c20.29-74.2 28.25-150.18 28.71-225.94-.44-75.77-8.41-151.74-28.7-226a773.91 773.91 0 0 0-94.74-214.37c-43-68-96.92-131.39-156.86-190.78C779.76 523.15 714.39 467.3 649 411.63c-65.39-55.67-130.73-111.46-190.54-170.85S343.82 118.22 300.93 50.44c-43.12-67.65-43.92-67.12-1.06.8s96.63 131.43 156.44 190.87 125.1 115.43 190.39 171.18c65.29 55.75 130.54 111.59 190.24 171 59.7 59.41 113.4 122.71 156.12 190.46a770.36 770.36 0 0 1 94 213.71 786.16 786.16 0 0 1 21.55 112 1009.08 1009.08 0 0 1 6.69 113.22c-.32 75.55-8.13 151.28-28.23 225.25a770.33 770.33 0 0 1-94 213.7c-42.71 67.79-96.39 131.09-156.12 190.43-59.73 59.34-125 115.3-190.23 171-65.23 55.7-130.6 111.64-190.39 171.18-59.79 59.54-113.65 122.88-156.44 190.86A771.83 771.83 0 0 0 206 2590.52c-18.38 68.11-26.37 137.68-27.7 207.19-.1-4.827-.17-9.66-.21-14.5 0 5.5.057 11 .17 16.5-.093 5.5-.15 11-.17 16.5.04-4.847.11-9.69.21-14.53 1.33 69.52 9.31 139.1 27.7 207.21a772.1 772.1 0 0 0 93.91 214.35c42.8 68 96.63 131.43 156.44 190.87s125.1 115.43 190.39 171.18c65.29 55.75 130.54 111.59 190.24 171 59.7 59.41 113.36 122.71 156.08 190.46a770.36 770.36 0 0 1 94 213.71 786.16 786.16 0 0 1 21.55 112 1009.08 1009.08 0 0 1 6.69 113.22c-.32 75.55-8.13 151.28-28.23 225.25a770.33 770.33 0 0 1-94 213.7c-42.71 67.79-96.39 131.09-156.12 190.43-59.73 59.34-125 115.3-190.23 171-65.23 55.7-130.6 111.64-190.39 171.18-59.79 59.54-113.65 122.88-156.44 190.86A771.83 771.83 0 0 0 206 5762.52c-20 74.14-27.71 150-27.91 225.69.58-75.66 8.66-151.49 29-225.51a772.31 772.31 0 0 1 94.83-213.7c42.91-67.78 96.69-131.05 156.54-190.34 59.85-59.29 125.16-115.2 190.54-170.87s130.79-111.51 190.7-171C899.61 4957.3 953.58 4894 996.56 4826a774 774 0 0 0 94.73-214.37c20.29-74.2 28.25-150.18 28.71-225.94-.44-75.77-8.41-151.74-28.7-225.95a773.91 773.91 0 0 0-94.74-214.35z"/>
            <path fill="#F1FBFF" d="M866.76 3945.39c-43-68-96.93-131.39-156.86-190.78-59.93-59.39-125.32-115.31-190.7-171s-130.73-111.46-190.55-170.85c-59.82-59.39-113.65-122.54-156.53-190.32a772.18 772.18 0 0 1-94.83-213.73c-18.9-68.64-27.21-138.84-28.79-209 1.57-70.17 9.89-140.36 28.78-209A772.61 772.61 0 0 1 172.11 2377c42.91-67.78 96.69-131 156.54-190.34 59.85-59.34 125.16-115.17 190.55-170.84 65.39-55.67 130.78-111.51 190.69-171C769.8 1785.33 823.77 1722 866.75 1654a773.75 773.75 0 0 0 94.73-214.37c20.3-74.2 28.25-150.18 28.72-225.94-.45-75.77-8.42-151.74-28.71-226a774.18 774.18 0 0 0-94.73-214.37c-43-68-96.93-131.39-156.86-190.78-59.93-59.39-125.32-115.31-190.7-171S388.47 300.17 328.65 240.78C268.83 181.39 214 118.22 171.12 50.44c-43.12-67.65-43.92-67.12-1.05.8 42.87 67.92 96.63 131.43 156.44 190.87s125.1 115.43 190.39 171.18c65.29 55.75 130.54 111.59 190.23 171S820.54 707 863.25 774.75a770.68 770.68 0 0 1 94 213.71 786.16 786.16 0 0 1 21.55 112 1009.08 1009.08 0 0 1 6.69 113.22c-.33 75.55-8.14 151.28-28.23 225.25a770.36 770.36 0 0 1-94 213.7c-42.71 67.79-96.38 131.09-156.11 190.43-59.73 59.34-124.95 115.3-190.24 171s-130.59 111.64-190.39 171.18c-59.8 59.54-113.64 122.88-156.44 190.86a772.1 772.1 0 0 0-93.91 214.35c-18.39 68.11-26.37 137.68-27.71 207.19-.1-4.827-.167-9.66-.2-14.5 0 5.5.057 11 .17 16.5-.1 5.5-.157 11-.17 16.5 0-4.847.067-9.69.2-14.53 1.34 69.52 9.32 139.1 27.71 207.21a771.51 771.51 0 0 0 93.91 214.35c42.8 68 96.63 131.43 156.44 190.87s125.1 115.43 190.39 171.18c65.29 55.75 130.54 111.59 190.23 171s113.4 122.78 156.11 190.53a770.68 770.68 0 0 1 94 213.71 786.16 786.16 0 0 1 21.55 112 1009.08 1009.08 0 0 1 6.69 113.22c-.33 75.55-8.14 151.28-28.23 225.25a770.36 770.36 0 0 1-94 213.7c-42.71 67.79-96.38 131.09-156.11 190.43-59.73 59.34-124.95 115.3-190.24 171s-130.59 111.64-190.39 171.18c-59.8 59.54-113.64 122.88-156.44 190.86a772.1 772.1 0 0 0-93.91 214.35c-20 74.14-27.71 150-27.91 225.69.58-75.66 8.66-151.49 29-225.51A772.61 772.61 0 0 1 172.11 5549c42.91-67.78 96.69-131.05 156.54-190.34 59.85-59.29 125.16-115.17 190.55-170.84 65.39-55.67 130.78-111.51 190.69-171C769.8 4957.33 823.77 4894 866.75 4826a773.75 773.75 0 0 0 94.73-214.37c20.3-74.2 28.25-150.18 28.72-225.94-.45-75.77-8.42-151.74-28.71-225.95a774.18 774.18 0 0 0-94.73-214.35z"/>
            <path fill="#A5D6EE" d="M934.53 3945.39c-43-68-96.92-131.39-156.86-190.78-59.94-59.39-125.31-115.31-190.7-171-65.39-55.69-130.73-111.46-190.54-170.85s-113.64-122.54-156.53-190.32a772.21 772.21 0 0 1-94.84-213.73c-18.9-68.64-27.21-138.84-28.79-209 1.58-70.17 9.89-140.36 28.78-209A772.64 772.64 0 0 1 239.89 2377c42.91-67.78 96.68-131 156.54-190.34 59.86-59.34 125.16-115.2 190.57-170.87s130.79-111.51 190.7-171C837.61 1785.3 891.55 1722 934.53 1654a774 774 0 0 0 94.73-214.37c20.29-74.2 28.25-150.18 28.71-225.94-.44-75.77-8.41-151.74-28.71-226a773.59 773.59 0 0 0-94.73-214.37c-43-68-96.92-131.39-156.86-190.78C717.73 523.15 652.36 467.3 587 411.63c-65.36-55.67-130.76-111.46-190.57-170.85S281.79 118.22 238.9 50.44c-5.38-8.44-7.11-8.79-1.06.8 42.8 68 96.63 131.43 156.44 190.87s125.1 115.43 190.39 171.18c65.29 55.75 130.54 111.59 190.24 171C834.61 643.7 888.31 707 931 774.75a770.39 770.39 0 0 1 94 213.71 786.16 786.16 0 0 1 21.55 112 1009.08 1009.08 0 0 1 6.69 113.22c-.32 75.55-8.13 151.28-28.23 225.25a770.33 770.33 0 0 1-94 213.7c-42.72 67.79-96.39 131.09-156.12 190.43-59.73 59.34-124.95 115.3-190.23 171-65.28 55.7-130.6 111.64-190.4 171.18-59.8 59.54-113.64 122.88-156.43 190.86a771.83 771.83 0 0 0-93.92 214.35c-18.38 68.11-26.37 137.68-27.7 207.19-.1-4.827-.17-9.66-.21-14.5 0 5.5.057 11 .17 16.5-.1 5.5-.157 11-.17 16.5.04-4.847.11-9.69.21-14.53 1.33 69.52 9.31 139.1 27.7 207.21a772.1 772.1 0 0 0 93.91 214.35c42.8 68 96.63 131.43 156.44 190.87s125.1 115.43 190.39 171.18c65.29 55.75 130.54 111.59 190.24 171 59.7 59.41 113.42 122.78 156.11 190.53a770.39 770.39 0 0 1 94 213.71 786.16 786.16 0 0 1 21.55 112 1009.08 1009.08 0 0 1 6.69 113.22c-.32 75.55-8.13 151.28-28.23 225.25a770.33 770.33 0 0 1-94 213.7c-42.72 67.79-96.39 131.09-156.12 190.43-59.73 59.34-124.95 115.3-190.23 171-65.28 55.7-130.6 111.64-190.4 171.18-59.8 59.54-113.64 122.88-156.43 190.86a771.83 771.83 0 0 0-93.92 214.35c-20 74.14-27.71 150-27.91 225.69.58-75.66 8.66-151.49 29-225.51A772.64 772.64 0 0 1 239.89 5549c42.91-67.78 96.68-131.05 156.54-190.34 59.86-59.29 125.16-115.2 190.57-170.87s130.79-111.51 190.7-171C837.61 4957.3 891.55 4894 934.53 4826a774 774 0 0 0 94.73-214.37c20.29-74.2 28.25-150.18 28.71-225.94-.44-75.77-8.41-151.74-28.71-225.95a773.59 773.59 0 0 0-94.73-214.35z"/>
        </g>
    </g>
</svg>
