<svg xmlns="http://www.w3.org/2000/svg" width="269" height="45" viewBox="0 0 269 45">
    <g fill="none" fill-rule="nonzero">
        <g fill="#000">
            <path d="M72.97 33.519V27.65h-2.114c-3.75 0-6.734-.869-8.951-2.607-2.416-1.88-3.624-4.644-3.624-8.29 0-7.142 4.295-10.713 12.883-10.713h1.776V1.758h2.792v4.283h1.796c8.596 0 12.893 3.571 12.893 10.713 0 3.653-1.21 6.416-3.633 8.29-2.218 1.738-5.195 2.607-8.952 2.607h-2.053v5.868h-2.812zm0-8.475V8.69h-1.467c-3.36 0-5.81.531-7.35 1.595-1.861 1.26-2.792 3.496-2.792 6.705 0 3.067.924 5.183 2.75 6.481 1.561 1.084 3.922 1.626 7.084 1.626l1.776-.052zM75.764 8.69v16.355h1.765c3.162 0 5.523-.541 7.083-1.625 1.834-1.295 2.751-3.455 2.751-6.48 0-3.21-.93-5.446-2.792-6.707-1.526-1.063-3.976-1.594-7.35-1.594l-1.457.05zM113.313 10.897h2.71v22.622h-2.7v-3.793a10.568 10.568 0 0 1-8.859 4.365 11.12 11.12 0 0 1-8.315-3.424 11.627 11.627 0 0 1-3.295-8.423 11.617 11.617 0 0 1 3.367-8.495 11.317 11.317 0 0 1 8.51-3.384 9.586 9.586 0 0 1 8.633 4.846l-.051-4.314zm0 11.244a9.271 9.271 0 0 0-2.546-6.409 8.031 8.031 0 0 0-6.16-2.8 8.135 8.135 0 0 0-6.353 2.82 9.78 9.78 0 0 0-2.505 6.706 9.179 9.179 0 0 0 2.525 6.43 8.145 8.145 0 0 0 6.252 2.74 7.936 7.936 0 0 0 4.845-1.616 9.381 9.381 0 0 0 3.962-7.87h-.02zM123.414 10.846v4.324a11.12 11.12 0 0 1 9.166-4.856 10.615 10.615 0 0 1 8.08 3.466 11.81 11.81 0 0 1 3.233 8.361 11.587 11.587 0 0 1-3.388 8.485 11.45 11.45 0 0 1-8.479 3.424 10.566 10.566 0 0 1-8.633-4.498v13.8h-2.659V10.846h2.68zM141.13 22.09a9.057 9.057 0 0 0-2.597-6.46 8.445 8.445 0 0 0-6.354-2.71 8.134 8.134 0 0 0-6.313 2.843 9.647 9.647 0 0 0-2.546 6.634 9.18 9.18 0 0 0 2.618 6.358 8.103 8.103 0 0 0 6.159 2.821c2.453.04 4.8-.99 6.426-2.82a9.505 9.505 0 0 0 2.607-6.707v.041zM159.547 30.472l7.976-19.575h4.106v22.622h-2.618V15.967a19.85 19.85 0 0 1 .093-2.044h-.175l-8.212 19.585h-2.207l-8.458-20.117c.082 1.125.133 1.963.133 2.515v17.613h-2.617V10.897h4.167l7.812 19.575zM195.732 10.897h2.7v22.622h-2.7v-3.793a10.568 10.568 0 0 1-8.88 4.365 11.12 11.12 0 0 1-8.284-3.424 11.627 11.627 0 0 1-3.295-8.423 11.617 11.617 0 0 1 3.367-8.464 11.316 11.316 0 0 1 8.459-3.415 9.586 9.586 0 0 1 8.633 4.846v-4.314zm0 11.244a9.271 9.271 0 0 0-2.546-6.409 8.031 8.031 0 0 0-6.16-2.8 8.135 8.135 0 0 0-6.333 2.77 9.78 9.78 0 0 0-2.505 6.705 9.179 9.179 0 0 0 2.505 6.43 8.145 8.145 0 0 0 6.252 2.74 7.936 7.936 0 0 0 4.845-1.616 9.381 9.381 0 0 0 3.962-7.87l-.02.05zM222.082 38.19h-2.381V33.52h-16.353v4.671h-2.432v-7.155h1.724l7.668-20.148h2.34l7.71 20.148h1.724v7.155zm-4.516-7.155l-5.975-15.998h-.184l-5.975 16.008 12.134-.01zM227.307 29.9l12.842-19.003h3.162v22.622h-2.751V14.505L227.759 33.52h-3.141V10.897h2.7zM249.675 22.223a9.655 9.655 0 0 0 2.279 6.614 7.9 7.9 0 0 0 6.272 2.607 8.804 8.804 0 0 0 4.732-1.32 7.705 7.705 0 0 0 3.08-3.669h2.792a11.126 11.126 0 0 1-4.106 5.5 10.953 10.953 0 0 1-6.508 2.095 10.624 10.624 0 0 1-8.09-3.506 11.902 11.902 0 0 1-3.253-8.362 11.79 11.79 0 0 1 3.254-8.33 10.604 10.604 0 0 1 8.089-3.487 10.851 10.851 0 0 1 6.374 1.943 11.149 11.149 0 0 1 4.106 5.284h-2.802c-1.45-3.087-4.003-4.63-7.658-4.63a7.88 7.88 0 0 0-6.313 2.586 9.838 9.838 0 0 0-2.248 6.675z"/>
        </g>
        <g fill="#2797D1">
            <path d="M31.9 31.024c-.41 6.9-2.156 12.492-8.582 13.432a24.55 24.55 0 0 0 13.725-6.204 23.705 23.705 0 0 0 7.976-20.19c-2.248 7.32-7.237 10.959-13.12 12.962zM4.133 36.504c.349.46.728.92 1.129 1.36a19.877 19.877 0 0 0 6.22 4.64c8.336 1.738 11.641-3.067 13.479-9.803-7.864 1.308-16.014 1.257-20.828 3.803zM39.927 6.726c-7.976-8.77-22.214-8.985-31.78-.388-7.392 6.634-9.845 16.55-6.92 24.778 3.604-4.538 14.69-3.434 25.099-4.916 1.416-8.117 2.32-16.857 7.33-20.343-2.054 4.856-1.695 12.195-1.643 19.198 5.255-1.452 9.895-4.09 12.667-9.047a19.914 19.914 0 0 0-4.753-9.282zm.257 8.955a2.776 2.776 0 0 1-4.839-.544 2.75 2.75 0 0 1 .425-2.789 2.769 2.769 0 0 1 3.86-.531 2.773 2.773 0 0 1 .554 3.864z"/>
        </g>
    </g>
</svg>
