<?xml version="1.0" encoding="utf-8"?>
<!-- Generator: Adobe Illustrator 22.1.0, SVG Export Plug-In . SVG Version: 6.00 Build 0)  -->
<svg version="1.1" id="Слой_1" xmlns="http://www.w3.org/2000/svg" xmlns:xlink="http://www.w3.org/1999/xlink" x="0px" y="0px"
	 viewBox="0 0 32.6 32.3" style="enable-background:new 0 0 32.6 32.3;" xml:space="preserve">
<style type="text/css">
	.st0{fill:#2797D1;}
</style>
<g>
	<g transform="translate(10)">
	</g>
	<path class="st0" d="M23,22.6c-0.3,5-1.6,9.1-6.2,9.8c3.7-0.4,7.2-2,9.9-4.5c4.2-3.7,6.3-9.1,5.8-14.7C30.9,18.4,27.3,21.1,23,22.6
		z M3,26.5c0.3,0.3,0.5,0.7,0.8,1c1.3,1.4,2.8,2.6,4.5,3.4c6,1.3,8.4-2.2,9.7-7.1C12.3,24.7,6.5,24.7,3,26.5z M28.9,4.9
		c-5.8-6.4-16.1-6.5-23-0.3c-5.3,4.8-7.1,12-5,18C3.5,19.3,11.5,20.1,19,19c1-5.9,1.7-12.3,5.3-14.8c-1.5,3.5-1.2,8.9-1.2,14
		c3.8-1.1,7.2-3,9.2-6.6C31.8,9.1,30.6,6.8,28.9,4.9z M29,11.4c-0.6,0.9-1.9,1.1-2.8,0.5c-0.3-0.2-0.6-0.5-0.7-0.9
		c-0.3-0.7-0.2-1.5,0.3-2c0.7-0.9,1.9-1,2.8-0.4C29.5,9.3,29.7,10.5,29,11.4z"/>
</g>
</svg>
