<svg xmlns="http://www.w3.org/2000/svg" width="16" height="12" viewBox="0 0 16 12">
    <g fill="none" fill-rule="evenodd">
        <path fill="" d="M-1024-620H416V864h-1440z"/>
        <g fill="#C4C4C4" fill-rule="nonzero">
            <path d="M7.43 6.964a.818.818 0 0 0 .594.234.812.812 0 0 0 .587-.228L14.477.798c.392-.413.259-.748-.298-.748H1.91c-.556 0-.69.336-.3.75l5.82 6.164zM.705 10.266l3.992-4.267L.708 1.773C.318 1.36 0 1.495 0 2.077v7.889c0 .581.316.716.705.3z"/>
            <path d="M1.907 11.995h12.178c.556 0 .692-.337.303-.753L10.416 6.99l-.885.933a2.068 2.068 0 0 1-1.507.63 2.078 2.078 0 0 1-1.515-.636l-.9-.954-4.005 4.278c-.39.416-.254.753.303.753zM15.992 9.964V2.181c0-.582-.318-.72-.71-.307l-3.95 4.155 3.956 4.235c.388.416.704.282.704-.3z"/>
        </g>
    </g>
</svg>
