<svg xmlns="http://www.w3.org/2000/svg" width="21" height="20" viewBox="0 0 21 20">
    <g fill="none" fill-rule="evenodd">
        <path fill="" d="M-647-2931H793v4630H-647z"/>
        <path fill="#2996D0" stroke="#2996D0" stroke-width=".5" d="M5.04 10.583c-1.207 0-2.182-.44-2.925-1.319C1.372 8.386 1 7.228 1 5.791c0-1.436.372-2.594 1.115-3.473S3.833 1 5.039 1c1.207 0 2.186.44 2.938 1.318.752.88 1.128 2.037 1.128 3.473 0 1.437-.376 2.595-1.128 3.473-.752.88-1.731 1.319-2.938 1.319zm11.306-9.454h1.13L4.92 19H3.79L16.346 1.13zM5.106 9.806c.927 0 1.67-.353 2.23-1.058.559-.705.839-1.669.839-2.892 0-1.223-.28-2.187-.84-2.892-.56-.705-1.302-1.058-2.23-1.058-.909 0-1.643.357-2.203 1.07-.56.714-.84 1.674-.84 2.88s.28 2.166.84 2.88c.56.713 1.294 1.07 2.204 1.07zM15.96 19c-1.207 0-2.186-.44-2.938-1.318-.752-.88-1.128-2.037-1.128-3.473 0-1.437.376-2.595 1.128-3.473.752-.88 1.731-1.319 2.938-1.319 1.206 0 2.181.44 2.924 1.319.743.878 1.115 2.036 1.115 3.473 0 1.436-.372 2.594-1.115 3.473S17.167 19 15.961 19zm0-.777c.889 0 1.607-.357 2.155-1.07.547-.714.821-1.673.821-2.88 0-1.206-.274-2.166-.821-2.879-.548-.714-1.266-1.07-2.156-1.07-.906 0-1.633.352-2.18 1.057-.548.705-.822 1.67-.822 2.892 0 1.224.274 2.188.821 2.893.548.705 1.275 1.057 2.181 1.057z"/>
    </g>
</svg>
