<svg xmlns="http://www.w3.org/2000/svg" xmlns:xlink="http://www.w3.org/1999/xlink" width="46" height="46" viewBox="0 0 46 46"><defs><path id="zagqa" d="M246 387a23 23 0 1 1 46 0 23 23 0 0 1-46 0z"/><path id="zagqb" d="M275.43 397.57c0 .11-.1.2-.2.2h-11.47a.2.2 0 0 1-.2-.2v-9.6h11.87v9.6zm-15.32-4.92a.9.9 0 0 1-.9-.92V383c0-.5.4-.9.9-.9h18.77c.5 0 .9.4.9.9v8.74c0 .5-.4.92-.9.92h-2.26v-5.29a.6.6 0 0 0-.6-.6h-13.06a.6.6 0 0 0-.6.6v5.29zm3.45-16.23c0-.11.1-.2.2-.2h11.46c.12 0 .2.1.2.2v4.45h-11.86zm13.06 17.43h2.26a2.1 2.1 0 0 0 2.1-2.11v-8.75a2.1 2.1 0 0 0-2.1-2.11h-2.26v-4.46c0-.77-.63-1.4-1.39-1.4h-11.47a1.4 1.4 0 0 0-1.4 1.4v4.46h-2.25a2.1 2.1 0 0 0-2.09 2.1v8.76a2.1 2.1 0 0 0 2.1 2.1h2.25v3.73c0 .77.63 1.4 1.39 1.4h11.47a1.4 1.4 0 0 0 1.39-1.4z"/><path id="zagqc" d="M261.1 383.99a.61.61 0 0 0 0 .85.6.6 0 0 0 .84 0 .6.6 0 0 0 0-.85.62.62 0 0 0-.85 0z"/><path id="zagqd" d="M271.92 393.1l-2.42 2.43-2.41-2.44a1.35 1.35 0 0 1 .93-2.3c.36 0 .7.15.95.4l.1.1a.6.6 0 0 0 .84 0l.12-.1a1.32 1.32 0 0 1 1.89 0c.25.26.39.6.38.96 0 .35-.13.7-.38.95zm-.95-3.5a2.5 2.5 0 0 0-1.47.47 2.49 2.49 0 0 0-3.26.26 2.55 2.55 0 0 0 .01 3.6l2.63 2.66a.88.88 0 0 0 1.25 0l2.63-2.65a2.57 2.57 0 0 0 0-3.6 2.53 2.53 0 0 0-1.79-.75z"/></defs><g><g transform="translate(-246 -364)"><use fill="#c5ecf9" xlink:href="#zagqa"/></g><g transform="translate(-246 -364)"><g><use fill="#2996d0" xlink:href="#zagqb"/><use fill="#fff" fill-opacity="0" stroke="#2996d0" stroke-miterlimit="50" stroke-width=".3" xlink:href="#zagqb"/></g><g><use fill="#2996d0" xlink:href="#zagqc"/><use fill="#fff" fill-opacity="0" stroke="#2996d0" stroke-miterlimit="50" stroke-width=".3" xlink:href="#zagqc"/></g><g><use fill="#2996d0" xlink:href="#zagqd"/><use fill="#fff" fill-opacity="0" stroke="#2996d0" stroke-miterlimit="50" stroke-width=".3" xlink:href="#zagqd"/></g></g></g></svg>