<svg xmlns="http://www.w3.org/2000/svg" xmlns:xlink="http://www.w3.org/1999/xlink" width="14" height="14" viewBox="0 0 14 14"><defs><path id="5u8ba" d="M85.8 2173.8c-.24.22-.52.34-.84.34-.33 0-.6-.12-.84-.35a1.14 1.14 0 0 1-.35-.83c0-.33.12-.6.35-.84.23-.23.51-.35.84-.35.32 0 .6.12.83.35.23.23.35.51.35.84 0 .32-.12.6-.35.83zm9.86 3.64l-6.6-6.6a2.86 2.86 0 0 0-.95-.6c-.4-.16-.76-.24-1.08-.24h-3.85c-.32 0-.6.12-.83.35-.23.24-.35.51-.35.83v3.85c0 .32.08.68.24 1.08.17.4.37.7.6.93l6.6 6.62c.24.23.51.34.84.34.32 0 .6-.11.84-.34l4.54-4.55c.23-.23.34-.5.34-.83 0-.32-.11-.6-.34-.84z"/></defs><g><g transform="translate(-82 -2170)"><use fill="#2996d0" xlink:href="#5u8ba"/></g></g></svg>