<svg xmlns="http://www.w3.org/2000/svg" width="9" height="16" viewBox="0 0 9 16">
    <g fill="none" fill-rule="evenodd">
        <path fill="" d="M-1028-678H412V806h-1440z"/>
        <path fill="#2996d0" fill-rule="nonzero" d="M7.785 15.972c.649 0 1.175-.51 1.175-1.141V1.14C8.96.511 8.434 0 7.785 0h-6.61C.525 0 0 .51 0 1.141v13.69c0 .63.526 1.14 1.175 1.14h6.61zm-3.324-.697a.729.729 0 0 1-.74-.717.73.73 0 0 1 .74-.718.73.73 0 0 1 .74.718.73.73 0 0 1-.74.717zM1.91 3.14c0-.173.144-.314.323-.314h4.492c.179 0 .324.14.324.314v9.38a.319.319 0 0 1-.324.314H2.234a.319.319 0 0 1-.324-.314v-9.38z"/>
    </g>
</svg>
