<svg xmlns="http://www.w3.org/2000/svg" width="47" height="84" viewBox="0 0 47 84">
    <defs>
        <filter id="a" width="192.4%" height="403.5%" x="-46.2%" y="-151.7%" filterUnits="objectBoundingBox">
            <feGaussianBlur in="SourceGraphic" stdDeviation="3.541"/>
        </filter>
    </defs>
    <g fill="none" fill-rule="evenodd">
        <path fill="#" d="M-631-665H809V819H-631z"/>
        <g>
            <ellipse cx="23.5" cy="71.5" fill="#A5D6EE" fill-rule="nonzero" filter="url(#a)" rx="11.5" ry="3.5"/>
            <path fill="#FFF" d="M22.538 70.922c15.777-25.539 23.665-42.042 23.665-49.51C46.203 10.208 38.055 0 25.92 0S0 9.015 0 23.665c0 9.767 7.513 25.519 22.538 47.257z"/>
            <path fill="#2797D1" fill-rule="nonzero" d="M30.219 29.722c-.297 5.019-1.559 9.086-6.206 9.77a17.706 17.706 0 0 0 9.925-4.513 17.294 17.294 0 0 0 5.767-14.684c-1.625 5.323-5.233 7.97-9.486 9.427zM10.14 33.707c.252.335.527.67.816.99a14.38 14.38 0 0 0 4.499 3.375c6.027 1.264 8.417-2.23 9.746-7.13-5.686.951-11.58.914-15.061 2.765zM36.024 12.05c-5.768-6.38-16.064-6.536-22.982-.283-5.344 4.825-7.119 12.037-5.003 18.022 2.605-3.3 10.622-2.498 18.15-3.576 1.023-5.903 1.677-12.26 5.3-14.796-1.485 3.532-1.226 8.87-1.189 13.963 3.801-1.056 7.156-2.974 9.16-6.58a14.514 14.514 0 0 0-3.436-6.75zm.185 6.512a2.003 2.003 0 0 1-3.499-.395 2.01 2.01 0 0 1 .307-2.029 1.995 1.995 0 0 1 2.791-.386 2.025 2.025 0 0 1 .401 2.81z"/>
        </g>
    </g>
</svg>
