<svg xmlns="http://www.w3.org/2000/svg" xmlns:xlink="http://www.w3.org/1999/xlink" width="46" height="46" viewBox="0 0 46 46"><defs><path id="5mrha" d="M190 2247a23 23 0 1 1 46 0 23 23 0 0 1-46 0z"/><path id="5mrhb" d="M223 2240.89a8.3 8.3 0 0 1-2.36.63c.85-.5 1.5-1.29 1.8-2.23-.79.47-1.66.8-2.6.98a4.12 4.12 0 0 0-7.1 2.76c0 .32.04.63.1.92a11.72 11.72 0 0 1-8.45-4.21 4.01 4.01 0 0 0 1.27 5.38c-.67-.02-1.3-.2-1.86-.5v.05a4.06 4.06 0 0 0 3.3 3.95 4.22 4.22 0 0 1-1.86.07 4.1 4.1 0 0 0 3.83 2.8 8.32 8.32 0 0 1-6.07 1.67 11.74 11.74 0 0 0 6.29 1.81c7.55 0 11.67-6.14 11.67-11.47l-.01-.53c.8-.56 1.5-1.27 2.05-2.08z"/></defs><g><g transform="translate(-190 -2224)"><use fill="#1da1f2" xlink:href="#5mrha"/></g><g transform="translate(-190 -2224)"><use fill="#fff" xlink:href="#5mrhb"/></g></g></svg>