<svg xmlns="http://www.w3.org/2000/svg" width="40" height="27" viewBox="0 0 40 27">
    <g fill="none" fill-rule="evenodd">
        <path fill="" d="M-862-3784H578V846H-862z"/>
        <g fill-rule="nonzero">
            <path fill="#F5F5F5" d="M36.942.022H2.991A2.994 2.994 0 0 0 0 3.019v20.227a2.994 2.994 0 0 0 2.99 2.998h33.952a2.994 2.994 0 0 0 2.99-2.998V3.02a2.994 2.994 0 0 0-2.99-2.997z"/>
            <g fill="#FF4B55">
                <path d="M.164 2.039h39.604A2.992 2.992 0 0 0 36.942.022H2.991C1.68.022.57.865.164 2.039zM0 8.09h39.933v2.017H0zM0 4.055h39.933v2.017H0zM0 13.451c0 .381.308.69.689.69h39.244v-2.017H0v1.327zM0 20.193h39.933v2.017H0zM39.768 24.227H.164a2.992 2.992 0 0 0 2.827 2.017h33.951c1.31 0 2.421-.843 2.826-2.017zM0 16.159h39.933v2.017H0z"/>
            </g>
            <path fill="#41479B" d="M.689 14.141H17.9a.69.69 0 0 0 .689-.69V.711a.69.69 0 0 0-.689-.69H2.991A2.994 2.994 0 0 0 0 3.02v10.432c0 .381.308.69.689.69z"/>
            <g fill="#F5F5F5">
                <path d="M1.933 1.605l.153.458.482.004c.062 0 .088.08.038.118l-.388.286.145.46a.065.065 0 0 1-.1.073l-.391-.28-.392.28c-.05.037-.118-.013-.1-.072l.146-.46-.388-.287a.065.065 0 0 1 .038-.118l.482-.003.152-.459c.02-.059.104-.059.123 0zM1.933 4.002l.153.458.482.003c.062 0 .088.08.038.118l-.388.287.145.46a.065.065 0 0 1-.1.073l-.391-.281-.392.28a.065.065 0 0 1-.1-.072l.146-.46-.388-.287a.065.065 0 0 1 .038-.118l.482-.003.152-.458c.02-.06.104-.06.123 0zM1.933 6.398l.153.458.482.004c.062 0 .088.08.038.117l-.388.287.145.46a.065.065 0 0 1-.1.073l-.391-.28-.392.28a.065.065 0 0 1-.1-.073l.146-.46-.388-.287a.065.065 0 0 1 .038-.117l.482-.004.152-.458c.02-.06.104-.06.123 0zM1.933 8.794l.153.458.482.004c.062 0 .088.08.038.117l-.388.287.145.46a.065.065 0 0 1-.1.073l-.391-.28-.392.28a.065.065 0 0 1-.1-.072l.146-.46-.388-.288a.065.065 0 0 1 .038-.117l.482-.004.152-.458c.02-.06.104-.06.123 0zM1.933 11.19l.153.459.482.003c.062 0 .088.08.038.118l-.388.286.145.46a.065.065 0 0 1-.1.073l-.391-.28-.392.28a.065.065 0 0 1-.1-.072l.146-.46-.388-.287a.065.065 0 0 1 .038-.118l.482-.003.152-.458c.02-.06.104-.06.123 0zM3.79 2.78l.152.458.481.004c.063 0 .088.08.038.117l-.387.287.145.46a.065.065 0 0 1-.1.073l-.391-.28-.392.28a.065.065 0 0 1-.1-.072l.145-.46-.387-.288a.065.065 0 0 1 .038-.117l.482-.004.152-.458c.02-.059.103-.059.123 0zM3.79 5.177l.152.458.481.003c.063 0 .088.08.038.118l-.387.287.145.46a.065.065 0 0 1-.1.072l-.391-.28-.392.28a.065.065 0 0 1-.1-.072l.145-.46-.387-.287a.065.065 0 0 1 .038-.118l.482-.003.152-.458c.02-.06.103-.06.123 0zM3.79 7.573l.152.458.481.004c.063 0 .088.08.038.117l-.387.287.145.46a.065.065 0 0 1-.1.073l-.391-.281-.392.28a.065.065 0 0 1-.1-.072l.145-.46-.387-.287a.065.065 0 0 1 .038-.117l.482-.004.152-.458c.02-.06.103-.06.123 0zM3.79 9.969l.152.458.481.004c.063 0 .088.08.038.117l-.387.287.145.46a.065.065 0 0 1-.1.073l-.391-.28-.392.28c-.051.036-.119-.013-.1-.073l.145-.46-.387-.287a.065.065 0 0 1 .038-.117l.482-.004.152-.458c.02-.06.103-.06.123 0zM5.645 1.605l.152.458.482.004c.062 0 .088.08.038.118l-.388.286.146.46a.065.065 0 0 1-.1.073l-.392-.28-.392.28c-.05.037-.118-.013-.1-.072l.146-.46-.387-.287a.065.065 0 0 1 .038-.118l.481-.004.153-.458c.02-.059.103-.059.123 0zM5.645 4.002l.152.458.482.003c.062 0 .088.08.038.118l-.388.287.146.46a.065.065 0 0 1-.1.073l-.392-.281-.392.28a.065.065 0 0 1-.1-.072l.146-.46-.387-.287a.065.065 0 0 1 .038-.118l.481-.003.153-.458c.02-.06.103-.06.123 0zM5.645 6.398l.152.458.482.004c.062 0 .088.08.038.117l-.388.287.146.46a.065.065 0 0 1-.1.073l-.392-.28-.392.28a.065.065 0 0 1-.1-.073l.146-.46-.387-.287a.065.065 0 0 1 .038-.117l.481-.004.153-.458c.02-.06.103-.06.123 0zM5.645 8.794l.152.458.482.004c.062 0 .088.08.038.117l-.388.287.146.46a.065.065 0 0 1-.1.073l-.392-.28-.392.28a.065.065 0 0 1-.1-.072l.146-.46-.387-.288a.065.065 0 0 1 .038-.117l.481-.004.153-.458c.02-.06.103-.06.123 0zM5.645 11.19l.152.459.482.003c.062 0 .088.08.038.118l-.388.286.146.46a.065.065 0 0 1-.1.073l-.392-.28-.392.28a.065.065 0 0 1-.1-.072l.146-.46-.387-.287a.065.065 0 0 1 .038-.118l.481-.003.153-.459c.02-.059.103-.059.123 0zM7.5 2.78l.153.458.482.004c.062 0 .088.08.038.117l-.388.287.146.46a.065.065 0 0 1-.1.073l-.392-.28-.392.28a.065.065 0 0 1-.1-.072l.146-.46-.388-.288a.065.065 0 0 1 .038-.117l.482-.004.153-.458c.02-.059.103-.059.123 0zM7.5 5.177l.153.458.482.003c.062 0 .088.08.038.118l-.388.287.146.46a.065.065 0 0 1-.1.072l-.392-.28-.392.28a.065.065 0 0 1-.1-.072l.146-.46-.388-.287a.065.065 0 0 1 .038-.118l.482-.003.153-.458c.02-.06.103-.06.123 0zM7.5 7.573l.153.458.482.004c.062 0 .088.08.038.117l-.388.287.146.46a.065.065 0 0 1-.1.073l-.392-.281-.392.28a.065.065 0 0 1-.1-.072l.146-.46-.388-.287a.065.065 0 0 1 .038-.117l.482-.004.153-.458c.02-.06.103-.06.123 0zM7.5 9.969l.153.458.482.004c.062 0 .088.08.038.117l-.388.287.146.46a.065.065 0 0 1-.1.073l-.392-.28-.392.28c-.05.036-.118-.013-.1-.073l.146-.46-.388-.287a.065.065 0 0 1 .038-.117l.482-.004.153-.458c.02-.06.103-.06.123 0zM9.356 1.605l.153.458.481.004c.063 0 .089.08.039.118l-.388.286.145.46a.065.065 0 0 1-.1.073l-.391-.28-.392.28c-.051.037-.119-.013-.1-.072l.145-.46-.387-.287a.065.065 0 0 1 .038-.118l.482-.003.152-.459c.02-.059.104-.059.123 0zM9.356 4.002l.153.458.481.003c.063 0 .089.08.039.118l-.388.287.145.46a.065.065 0 0 1-.1.073l-.391-.281-.392.28a.065.065 0 0 1-.1-.072l.145-.46-.387-.287a.065.065 0 0 1 .038-.118l.482-.003.152-.458c.02-.06.104-.06.123 0zM9.356 6.398l.153.458.481.004c.063 0 .089.08.039.117l-.388.287.145.46a.065.065 0 0 1-.1.073l-.391-.281-.392.28a.065.065 0 0 1-.1-.072l.145-.46-.387-.287a.065.065 0 0 1 .038-.117l.482-.004.152-.458c.02-.06.104-.06.123 0zM9.356 8.794l.153.458.481.004c.063 0 .089.08.039.117l-.388.287.145.46a.065.065 0 0 1-.1.073l-.391-.28-.392.28a.065.065 0 0 1-.1-.072l.145-.46-.387-.288a.065.065 0 0 1 .038-.117l.482-.004.152-.458c.02-.06.104-.06.123 0zM9.356 11.19l.153.459.481.003c.063 0 .089.08.039.118l-.388.286.145.46a.065.065 0 0 1-.1.073l-.391-.28-.392.28a.065.065 0 0 1-.1-.072l.145-.46-.387-.287a.065.065 0 0 1 .038-.118l.482-.003.152-.459c.02-.059.104-.059.123 0zM11.212 2.78l.152.458.482.004c.063 0 .088.08.038.117l-.387.287.145.46a.065.065 0 0 1-.1.073l-.392-.28-.391.28a.065.065 0 0 1-.1-.072l.145-.46-.387-.288a.065.065 0 0 1 .038-.117l.482-.004.152-.458c.02-.059.103-.059.123 0zM11.212 5.177l.152.458.482.003c.063 0 .088.08.038.118l-.387.287.145.46a.065.065 0 0 1-.1.072l-.392-.28-.391.28a.065.065 0 0 1-.1-.072l.145-.46-.387-.287a.065.065 0 0 1 .038-.118l.482-.003.152-.458c.02-.06.103-.06.123 0zM11.212 7.573l.152.458.482.004c.063 0 .088.08.038.117l-.387.287.145.46a.065.065 0 0 1-.1.073l-.392-.281-.391.28a.065.065 0 0 1-.1-.072l.145-.46-.387-.287a.065.065 0 0 1 .038-.117l.482-.004.152-.458c.02-.06.103-.06.123 0zM11.212 9.969l.152.458.482.004c.063 0 .088.08.038.117l-.387.287.145.46a.065.065 0 0 1-.1.073l-.392-.28-.391.28c-.051.036-.119-.013-.1-.073l.145-.46-.387-.287a.065.065 0 0 1 .038-.117l.482-.004.152-.458c.02-.06.103-.06.123 0zM13.068 1.605l.152.458.482.004c.062 0 .088.08.038.118l-.388.286.146.46a.065.065 0 0 1-.1.073l-.392-.28-.392.28c-.05.037-.118-.013-.1-.072l.146-.46-.388-.287a.065.065 0 0 1 .039-.118l.481-.004.153-.458c.02-.059.103-.059.123 0zM13.068 4.002l.152.458.482.003c.062 0 .088.08.038.118l-.388.287.146.46a.065.065 0 0 1-.1.073l-.392-.281-.392.28a.065.065 0 0 1-.1-.072l.146-.46-.388-.287a.065.065 0 0 1 .039-.118l.481-.003.153-.458c.02-.06.103-.06.123 0zM13.068 6.398l.152.458.482.004c.062 0 .088.08.038.117l-.388.287.146.46a.065.065 0 0 1-.1.073l-.392-.28-.392.28a.065.065 0 0 1-.1-.073l.146-.46-.388-.287a.065.065 0 0 1 .039-.117l.481-.004.153-.458c.02-.06.103-.06.123 0zM13.068 8.794l.152.458.482.004c.062 0 .088.08.038.117l-.388.287.146.46a.065.065 0 0 1-.1.073l-.392-.28-.392.28a.065.065 0 0 1-.1-.072l.146-.46-.388-.288a.065.065 0 0 1 .039-.117l.481-.004.153-.458c.02-.06.103-.06.123 0zM13.068 11.19l.152.459.482.003c.062 0 .088.08.038.118l-.388.286.146.46a.065.065 0 0 1-.1.073l-.392-.28-.392.28a.065.065 0 0 1-.1-.072l.146-.46-.388-.287a.065.065 0 0 1 .039-.118l.481-.003.153-.459c.02-.059.103-.059.123 0zM14.924 2.78l.152.458.482.004c.062 0 .088.08.038.117l-.388.287.146.46a.065.065 0 0 1-.1.073l-.392-.28-.392.28a.065.065 0 0 1-.1-.072l.146-.46-.388-.288a.065.065 0 0 1 .038-.117l.482-.004.152-.458c.02-.059.104-.059.124 0zM14.924 5.177l.152.458.482.003c.062 0 .088.08.038.118l-.388.287.146.46a.065.065 0 0 1-.1.072l-.392-.28-.392.28a.065.065 0 0 1-.1-.072l.146-.46-.388-.287a.065.065 0 0 1 .038-.118l.482-.003.152-.458c.02-.06.104-.06.124 0zM14.924 7.573l.152.458.482.004c.062 0 .088.08.038.117l-.388.287.146.46a.065.065 0 0 1-.1.073l-.392-.281-.392.28a.065.065 0 0 1-.1-.072l.146-.46-.388-.287a.065.065 0 0 1 .038-.117l.482-.004.152-.458c.02-.06.104-.06.124 0zM14.924 9.969l.152.458.482.004c.062 0 .088.08.038.117l-.388.287.146.46a.065.065 0 0 1-.1.073l-.392-.28-.392.28c-.05.036-.118-.013-.1-.073l.146-.46-.388-.287a.065.065 0 0 1 .038-.117l.482-.004.152-.458c.02-.06.104-.06.124 0zM16.78 1.605l.152.458.481.004c.063 0 .089.08.039.118l-.388.286.145.46a.065.065 0 0 1-.1.073l-.391-.28-.392.28c-.05.037-.119-.013-.1-.072l.146-.46-.388-.287a.065.065 0 0 1 .038-.118l.482-.004.152-.458c.02-.059.103-.059.123 0zM16.78 4.002l.152.458.481.003c.063 0 .089.08.039.118l-.388.287.145.46a.065.065 0 0 1-.1.073l-.391-.281-.392.28a.065.065 0 0 1-.1-.072l.146-.46-.388-.287a.065.065 0 0 1 .038-.118l.482-.003.152-.458c.02-.06.103-.06.123 0zM16.78 6.398l.152.458.481.004c.063 0 .089.08.039.117l-.388.287.145.46a.065.065 0 0 1-.1.073l-.391-.28-.392.28a.065.065 0 0 1-.1-.073l.146-.46-.388-.287a.065.065 0 0 1 .038-.117l.482-.004.152-.458c.02-.06.103-.06.123 0zM16.78 8.794l.152.458.481.004c.063 0 .089.08.039.117l-.388.287.145.46a.065.065 0 0 1-.1.073l-.391-.28-.392.28a.065.065 0 0 1-.1-.072l.146-.46-.388-.288a.065.065 0 0 1 .038-.117l.482-.004.152-.458c.02-.06.103-.06.123 0zM16.78 11.19l.152.459.481.003c.063 0 .089.08.039.118l-.388.286.145.46a.065.065 0 0 1-.1.073l-.391-.28-.392.28a.065.065 0 0 1-.1-.072l.146-.46-.388-.287a.065.065 0 0 1 .038-.118l.482-.003.152-.459c.02-.059.103-.059.123 0z"/>
            </g>
        </g>
    </g>
</svg>
