<svg xmlns="http://www.w3.org/2000/svg" width="11" height="16" viewBox="0 0 11 16">
    <g fill="none" fill-rule="evenodd">
        <path fill="" d="M-1027-498H413V986h-1440z"/>
        <g fill="#2996D0" fill-rule="nonzero">
            <path d="M5.515 7.493c1.984 0 3.592-1.678 3.592-3.745C9.107 1.678 7.499 0 5.515 0S1.924 1.678 1.924 3.748c0 2.067 1.607 3.745 3.591 3.745zM.06 14.963c-.126.566.224 1.025.781 1.025h9.348c.557 0 .907-.46.781-1.025a57.274 57.274 0 0 1-.466-2.075c-.466-2.43-2.522-4.259-4.988-4.259-2.466 0-4.524 1.83-4.99 4.26-.073.379-.228 1.07-.467 2.074z"/>
        </g>
    </g>
</svg>
