<svg xmlns="http://www.w3.org/2000/svg" xmlns:xlink="http://www.w3.org/1999/xlink" width="46" height="46" viewBox="0 0 46 46"><defs><path id="ihg7a" d="M261 2247a23 23 0 1 1 46 0 23 23 0 0 1-46 0z"/><path id="ihg7b" d="M293.86 2251.8l-.07-.14a10.86 10.86 0 0 0-2.08-2.41l-.02-.02-.02-.01v-.01h-.02a12.6 12.6 0 0 1-.88-.9c-.23-.29-.28-.58-.15-.88.08-.23.41-.7.98-1.43l.7-.93c1.27-1.67 1.81-2.74 1.65-3.2l-.07-.12c-.04-.06-.16-.12-.34-.18a1.72 1.72 0 0 0-.7-.02l-3.14.02a.4.4 0 0 0-.22 0l-.14.04-.06.02-.04.04a.49.49 0 0 0-.12.11.75.75 0 0 0-.11.2 17.8 17.8 0 0 1-1.91 3.62 5.64 5.64 0 0 1-.98 1.1c-.13.1-.22.14-.29.13a8.03 8.03 0 0 1-.18-.05.73.73 0 0 1-.25-.26 1.2 1.2 0 0 1-.12-.43 4.69 4.69 0 0 1-.04-.96l.01-.46a27.04 27.04 0 0 1 .05-1.67v-.6c0-.21 0-.38-.03-.5a1.7 1.7 0 0 0-.11-.35.59.59 0 0 0-.23-.26c-.1-.06-.22-.11-.36-.15a7.27 7.27 0 0 0-1.48-.14c-1.35-.01-2.22.07-2.6.26-.16.08-.3.2-.42.33-.14.16-.15.25-.06.26.44.07.75.22.93.47l.07.13a5.06 5.06 0 0 1 .25 1.3 8.49 8.49 0 0 1-.25 2.76c-.07.13-.11.21-.14.24a.19.19 0 0 1-.05.06c-.1.03-.2.05-.3.05-.1 0-.22-.05-.37-.15-.14-.1-.3-.24-.45-.42a5.61 5.61 0 0 1-.53-.75c-.2-.32-.4-.7-.61-1.13l-.18-.32a27.2 27.2 0 0 1-.95-2.02.72.72 0 0 0-.26-.35l-.05-.03a1.16 1.16 0 0 0-.43-.16l-3 .02c-.3 0-.5.07-.61.2l-.05.07a.35.35 0 0 0-.03.17c0 .08.02.18.07.3a36 36 0 0 0 3.92 6.92 24.15 24.15 0 0 0 1.08 1.32l.27.26c.18.17.43.38.77.63.34.24.71.48 1.13.72a6.1 6.1 0 0 0 3.03.75h1.25c.26-.02.45-.1.58-.24l.04-.05a1.1 1.1 0 0 0 .12-.5c0-.31.02-.6.07-.85.06-.25.12-.44.2-.57a1.4 1.4 0 0 1 .41-.48.71.71 0 0 1 .09-.03c.17-.06.38 0 .62.17.23.17.45.38.66.63l.75.84c.3.32.55.55.76.7l.22.13c.15.1.34.17.57.24.23.08.44.1.61.06l2.8-.05c.27 0 .49-.04.64-.13.16-.1.25-.2.28-.3a.84.84 0 0 0 0-.37 1.37 1.37 0 0 0-.08-.3z"/></defs><g><g transform="translate(-261 -2224)"><use fill="#45668e" xlink:href="#ihg7a"/></g><g transform="translate(-261 -2224)"><use fill="#fff" xlink:href="#ihg7b"/></g></g></svg>