<svg xmlns="http://www.w3.org/2000/svg" width="26" height="26" viewBox="0 0 26 26">
    <g fill="none" fill-rule="evenodd">
        <circle cx="13" cy="13" r="13" fill="#4D75A3"/>
        <path fill="#F0F0F0" fill-rule="nonzero" d="M21.039 17.009a1.06 1.06 0 0 0-.055-.102c-.282-.49-.821-1.09-1.616-1.803l-.017-.016-.008-.008-.009-.008h-.008c-.361-.332-.59-.555-.686-.669-.175-.217-.214-.438-.118-.66.067-.17.321-.525.761-1.069.231-.288.415-.52.55-.693.976-1.25 1.399-2.05 1.27-2.398l-.051-.081c-.034-.05-.122-.094-.262-.135a1.38 1.38 0 0 0-.542-.02l-2.437.016a.328.328 0 0 0-.169.004l-.11.025-.042.02-.034.024a.37.37 0 0 0-.093.086.555.555 0 0 0-.085.143c-.265.658-.566 1.27-.905 1.835-.209.337-.4.63-.575.877-.175.247-.322.43-.44.546-.119.117-.226.21-.322.281-.096.071-.169.101-.22.09a6.396 6.396 0 0 1-.144-.033.55.55 0 0 1-.19-.2.871.871 0 0 1-.097-.317 3.383 3.383 0 0 1-.03-.33 6.652 6.652 0 0 1 .004-.392c.006-.169.009-.283.009-.343 0-.207.004-.43.013-.673l.02-.575c.006-.141.01-.29.01-.448 0-.158-.01-.282-.03-.371-.02-.09-.05-.177-.09-.261a.444.444 0 0 0-.173-.196.999.999 0 0 0-.283-.11c-.299-.066-.68-.1-1.142-.106-1.05-.011-1.723.054-2.022.195-.119.06-.226.142-.322.245-.101.12-.116.185-.042.196.338.049.578.166.719.35l.05.098c.04.071.08.196.12.376.039.179.064.377.075.595a6.12 6.12 0 0 1 0 1.02c-.028.282-.055.502-.08.66a1.287 1.287 0 0 1-.216.563.143.143 0 0 1-.042.04.655.655 0 0 1-.229.041c-.079 0-.174-.038-.287-.114a2.004 2.004 0 0 1-.351-.314 4.203 4.203 0 0 1-.41-.559 9.641 9.641 0 0 1-.474-.848l-.136-.236c-.084-.153-.2-.374-.347-.665a12.588 12.588 0 0 1-.389-.844.54.54 0 0 0-.203-.261l-.042-.025a.924.924 0 0 0-.33-.122l-2.318.016c-.237 0-.398.052-.483.155l-.034.05a.256.256 0 0 0-.025.13c0 .06.017.133.05.22.34.767.707 1.506 1.105 2.218a24.73 24.73 0 0 0 1.036 1.721c.294.435.592.846.897 1.232.305.386.506.633.605.742.099.109.176.19.233.245l.211.195c.136.13.334.287.597.47.262.181.553.36.871.538.319.176.69.32 1.113.432.423.111.835.156 1.235.134h.973c.197-.016.347-.076.449-.179l.033-.04a.53.53 0 0 0 .064-.152.8.8 0 0 0 .03-.224 2.594 2.594 0 0 1 .054-.632 1.62 1.62 0 0 1 .144-.424 1.045 1.045 0 0 1 .326-.359.563.563 0 0 1 .067-.028c.136-.044.295-.002.479.126.183.128.355.286.516.473.16.188.354.399.58.632.225.234.422.408.591.522l.17.098c.113.065.26.125.44.18.18.054.338.068.473.04l2.166-.032c.215 0 .381-.034.5-.102.118-.068.188-.143.211-.224a.61.61 0 0 0 .004-.278.995.995 0 0 0-.06-.216z"/>
    </g>
</svg>
