<svg xmlns="http://www.w3.org/2000/svg" width="26" height="26" viewBox="0 0 26 26">
    <g fill="none" fill-rule="evenodd">
        <circle cx="13" cy="13" r="13" fill="#CD201F"/>
        <path fill="#F0F0F0" fill-rule="nonzero" d="M17.42 8.125H9.362A2.859 2.859 0 0 0 6.5 10.98v4.017a2.859 2.859 0 0 0 2.862 2.855h8.058a2.859 2.859 0 0 0 2.863-2.855V10.98a2.859 2.859 0 0 0-2.863-2.855zm-1.936 5.059l-3.769 1.792a.151.151 0 0 1-.216-.136v-3.697c0-.113.12-.186.22-.135l3.769 1.905a.15.15 0 0 1-.004.27z"/>
    </g>
</svg>
